<?xml version="1.0" standalone="no"?>
<!DOCTYPE svg PUBLIC "-//W3C//DTD SVG 20010904//EN"
 "http://www.w3.org/TR/2001/REC-SVG-20010904/DTD/svg10.dtd">
<svg version="1.0" xmlns="http://www.w3.org/2000/svg"
 width="1024.000000pt" height="1024.000000pt" viewBox="0 0 1024.000000 1024.000000"
 preserveAspectRatio="xMidYMid meet">
<metadata>
Created by potrace 1.16, written by Peter Selinger 2001-2019
</metadata>
<g transform="translate(0.000000,1024.000000) scale(0.100000,-0.100000)"
fill="#000000" stroke="none">
<path d="M2 5118 c1 -2818 4 -5085 5 -5038 2 46 9 90 15 97 6 8 6 13 1 13 -5
0 -11 23 -12 50 l-1 50 98 0 c109 0 193 -18 249 -53 44 -27 148 -77 161 -77
16 0 42 -36 42 -58 0 -29 -24 -28 -48 3 -33 41 -124 68 -200 58 -38 -5 -40 -7
-25 -18 10 -7 44 -19 75 -26 34 -8 54 -17 49 -22 -6 -6 -23 -5 -42 2 -17 6
-76 11 -129 11 -77 0 -107 -4 -145 -21 -25 -11 -45 -22 -43 -24 2 -2 67 -11
143 -19 77 -9 162 -22 189 -31 32 -10 89 -15 161 -15 l111 0 -4 35 c-5 43 9
61 91 117 66 45 120 65 302 113 153 41 349 71 507 80 151 8 178 13 172 29 -3
7 -17 19 -32 25 -24 11 -25 14 -9 22 10 6 15 14 12 20 -4 5 0 9 8 9 19 0 94
75 89 89 -4 12 50 5 81 -11 32 -16 27 -4 -14 40 -28 28 -35 42 -25 42 9 0 21
11 26 25 5 14 16 25 25 25 8 0 15 6 15 13 0 6 16 25 35 40 41 33 43 27 11 -39
-24 -50 -21 -64 16 -64 21 0 27 -19 17 -47 -5 -13 -6 -23 -2 -23 4 0 -1 -6
-11 -13 -16 -12 -14 -15 25 -33 24 -10 47 -20 51 -20 4 -1 13 -2 18 -3 6 0 10
-9 10 -18 0 -14 2 -15 9 -5 4 8 11 14 14 13 4 0 45 18 92 40 102 47 149 58
236 59 186 0 154 -44 -46 -64 -67 -7 -109 -18 -136 -38 -29 -21 -126 -47 -180
-48 -20 0 -42 -7 -49 -15 -17 -20 9 -29 130 -44 134 -17 267 -39 320 -53 78
-20 156 -64 180 -102 l21 -36 -22 -40 c-16 -27 -43 -53 -81 -76 -32 -20 -58
-37 -58 -40 0 -2 21 -4 48 -3 45 0 49 3 92 54 25 30 48 55 52 55 4 0 10 -17
13 -37 13 -78 5 -73 124 -73 65 0 111 4 118 11 18 18 467 24 578 9 50 -7 146
-15 214 -17 l124 -4 -50 56 c-150 168 -176 411 -77 719 87 270 351 607 597
763 29 18 109 62 179 97 200 103 408 156 614 156 240 0 446 -80 600 -234 124
-124 161 -236 151 -454 -5 -106 -11 -146 -41 -242 -62 -204 -122 -311 -284
-503 -124 -148 -224 -235 -359 -312 l-78 -45 57 0 c31 0 69 5 83 12 19 9 28 9
37 0 16 -16 268 -17 268 -1 0 9 65 83 171 194 15 17 35 46 43 65 8 19 29 48
45 63 45 41 40 67 -19 123 -35 33 -50 54 -48 68 4 28 35 33 43 6 4 -12 25 -35
48 -51 l42 -30 22 26 c13 14 23 32 23 39 0 7 9 30 20 53 30 64 49 124 56 178
5 42 2 55 -18 85 -41 60 -44 79 -6 43 19 -18 39 -33 46 -33 13 0 17 62 5 73
-13 14 -9 57 5 57 11 0 13 9 9 37 -5 28 -4 34 6 24 8 -8 12 -44 11 -104 -1
-118 -43 -306 -90 -406 -53 -114 -193 -316 -288 -418 -47 -50 -86 -94 -86 -97
0 -3 79 -6 175 -6 l175 0 -14 23 -15 22 227 0 c224 0 229 0 347 32 66 18 151
44 189 58 38 14 71 25 74 25 4 0 1 5 -4 10 -7 7 -29 6 -70 -4 -274 -65 -378
-80 -513 -73 -114 6 -151 18 -121 38 8 5 29 8 45 5 40 -5 178 11 300 35 339
69 645 212 645 301 0 30 -50 70 -116 95 -52 20 -68 21 -139 14 -141 -15 -158
-37 -30 -39 85 -1 141 -18 190 -57 25 -20 15 -37 -51 -88 -88 -67 -295 -137
-504 -168 -127 -20 -231 -22 -247 -5 -5 4 3 16 16 27 20 17 24 30 26 86 2 41
8 68 16 73 7 5 14 21 16 37 2 15 9 41 15 56 14 36 0 54 -31 38 -12 -7 -21 -8
-21 -3 0 13 176 60 268 72 39 6 93 15 120 21 26 6 87 11 135 11 61 0 87 4 84
12 -8 25 -235 23 -380 -4 -59 -11 -70 -11 -83 2 -33 33 1 42 291 78 118 14
335 -10 459 -51 75 -26 174 -75 204 -102 78 -72 -55 -202 -318 -313 -74 -32
-139 -61 -144 -66 -40 -34 180 31 304 90 171 82 283 224 237 301 -44 75 -166
131 -370 170 -118 23 -414 31 -594 16 -78 -6 -94 -5 -108 9 -9 9 -13 16 -8 17
4 0 -5 6 -21 14 l-30 13 30 6 c187 38 225 41 464 41 343 0 480 -24 665 -117
94 -47 100 -51 137 -102 36 -50 38 -108 4 -174 -59 -116 -118 -169 -322 -293
-142 -86 -175 -101 -319 -150 -105 -36 -108 -38 -64 -38 26 -1 60 6 75 14 16
8 36 15 45 15 9 0 41 8 72 19 63 20 78 11 44 -26 l-20 -23 171 0 c95 0 172 4
172 8 0 4 14 16 31 26 38 22 86 72 104 107 12 22 12 36 -2 92 -17 70 -25 74
-68 37 -49 -42 -45 -27 6 22 43 40 67 75 99 143 39 82 43 88 50 64 4 -15 11
-81 15 -147 9 -149 2 -166 -107 -275 l-78 -77 94 0 c71 0 105 5 140 20 25 10
69 26 98 34 l53 15 -30 -24 c-16 -14 -33 -25 -37 -25 -5 0 -8 -4 -8 -10 0 -6
75 -10 205 -10 188 0 208 2 226 19 11 10 34 21 50 25 16 3 29 10 29 16 0 6 -5
8 -10 5 -5 -3 -10 0 -10 8 0 8 -7 20 -15 27 -8 7 -15 21 -15 31 0 10 -11 29
-24 42 -12 13 -25 29 -28 37 -3 11 -13 10 -49 -7 -102 -46 -120 -53 -114 -43
4 6 46 31 93 55 119 61 187 101 252 146 29 21 56 36 58 34 10 -9 -55 -73 -90
-88 -21 -9 -38 -20 -38 -23 0 -10 115 -143 124 -143 13 -1 144 87 183 123 25
22 30 32 20 39 -8 6 -6 7 6 3 11 -3 28 4 45 18 15 14 38 34 52 46 18 16 20 20
7 16 -10 -3 -16 -2 -13 3 6 8 -47 51 -63 51 -6 0 -14 6 -18 14 -18 30 -85 48
-98 26 -4 -6 7 -31 24 -57 17 -26 31 -51 31 -57 0 -6 -8 1 -18 16 -23 35 -69
71 -82 63 -5 -3 -7 0 -4 7 3 7 35 36 70 63 71 54 274 260 274 276 0 18 -15 7
-100 -70 -45 -41 -109 -96 -143 -123 -34 -27 -87 -69 -118 -94 -143 -116 -471
-302 -649 -367 -142 -52 -155 -52 -55 -2 84 43 135 77 92 62 -20 -7 -23 3 -5
21 18 18 4 24 -27 12 -15 -6 -30 -8 -33 -5 -7 7 -13 3 131 79 362 189 676 451
849 711 106 159 138 228 138 296 0 114 -108 151 -326 114 -208 -36 -498 -167
-714 -321 -159 -113 -240 -175 -307 -232 -72 -61 -75 -63 -104 -52 -16 7 -32
16 -34 21 -7 10 272 227 410 319 158 104 259 163 382 221 144 68 182 82 363
135 290 85 436 69 500 -57 25 -48 25 -89 0 -209 -11 -52 -20 -97 -20 -99 0 -3
11 6 24 18 20 19 24 20 30 6 3 -9 2 -14 -3 -11 -5 3 -14 -7 -19 -23 -9 -24 -6
-37 15 -78 26 -49 70 -103 85 -103 13 0 80 141 74 156 -3 8 3 23 14 34 28 28
25 50 -14 92 -19 20 -31 39 -28 42 3 3 0 6 -6 6 -7 0 -12 5 -12 10 0 20 16 8
58 -44 23 -29 42 -61 42 -70 0 -55 -148 -351 -231 -463 -31 -42 -154 -185
-228 -265 -92 -101 -394 -324 -571 -422 l-65 -36 226 0 226 0 -4 24 c-4 21 1
25 44 35 29 8 95 11 167 9 l119 -3 71 76 71 77 79 7 c97 8 246 54 308 95 60
40 159 146 182 195 13 28 17 50 12 84 -6 46 -5 48 26 63 95 45 198 152 198
205 0 35 -25 78 -62 106 l-32 25 32 30 c33 31 41 65 20 78 -6 4 -41 7 -77 6
-55 0 -67 -4 -82 -23 -15 -21 -17 -21 -26 -4 -8 13 -26 19 -65 23 -54 4 -55 3
-114 -48 -32 -29 -68 -55 -79 -60 -24 -9 -95 -1 -95 10 0 13 109 78 160 96 25
9 56 22 70 29 67 34 253 53 350 35 124 -23 190 -80 190 -167 0 -99 -28 -168
-129 -323 -84 -129 -279 -303 -472 -422 -24 -14 -84 -52 -134 -83 -113 -71
-165 -95 -296 -136 l-104 -34 85 -3 c99 -3 148 13 310 107 207 119 336 217
511 391 181 179 252 285 285 426 19 85 13 137 -26 197 -79 125 -317 152 -586
66 -106 -34 -128 -36 -146 -11 -7 11 -20 21 -28 24 -34 11 194 100 327 127
229 47 371 46 481 -4 l52 -24 0 45 c0 37 -3 44 -20 44 -11 0 -20 5 -20 11 0 6
9 8 20 4 18 -6 20 -2 20 31 0 34 -10 47 -104 143 -56 59 -117 131 -134 161
-99 174 -1 371 221 444 12 4 17 16 17 41 0 29 -4 35 -20 35 -26 0 -28 7 -32
110 l-4 85 -27 -3 c-16 -2 -54 4 -85 11 -31 8 -81 18 -109 22 -37 5 -53 11
-53 22 0 12 15 14 83 12 45 -1 119 -1 165 -1 l82 2 0 39 c0 36 -3 40 -27 43
-24 3 -28 8 -31 38 -4 54 -13 85 -20 73 -4 -6 -17 -13 -29 -17 -19 -6 -25 0
-43 41 -14 31 -22 71 -23 113 l-2 65 -40 13 c-22 8 -58 17 -80 22 -29 6 -2 8
96 9 75 1 151 4 168 7 28 6 31 10 31 45 l0 39 -50 0 c-46 0 -50 2 -56 27 -4
15 -13 38 -20 52 -8 14 -14 38 -14 52 0 14 -7 34 -15 45 -8 10 -15 39 -15 64
0 25 -4 50 -8 56 -14 21 -51 34 -96 34 -25 0 -46 5 -46 10 0 6 24 10 53 10 30
0 102 3 160 7 l107 6 0 33 0 33 -67 3 -68 3 -10 58 c-6 32 -13 55 -18 51 -4
-4 -8 6 -8 22 -2 24 -2 25 -6 6 -6 -31 -43 -26 -60 8 -6 13 -22 28 -35 33 -15
5 -19 10 -10 16 8 5 9 16 2 40 -7 25 -6 33 6 38 7 3 14 11 14 18 0 16 -22 25
-60 25 -32 0 -147 28 -170 41 -9 5 61 9 170 9 250 0 320 7 320 31 0 16 -8 19
-42 19 -129 2 -298 19 -298 31 0 11 20 15 135 29 50 6 92 15 93 21 2 5 28 9
58 9 53 0 54 1 54 29 l0 28 -112 6 c-147 7 -258 32 -258 57 0 16 13 19 113 25
61 4 145 7 185 8 62 1 72 4 72 19 0 16 -11 18 -82 19 -107 1 -128 8 -150 47
-17 31 -17 32 8 57 14 14 29 25 34 25 6 0 10 5 10 10 0 6 -12 10 -26 10 -39 0
-19 17 36 30 28 7 53 16 56 21 9 15 44 10 50 -6 4 -10 17 -14 35 -13 25 2 29
7 29 30 l0 28 -152 1 c-110 1 -139 4 -102 9 28 4 62 14 75 23 13 8 59 18 102
22 62 6 77 11 77 24 0 13 -10 16 -57 13 -72 -3 -250 -21 -280 -29 l-23 -5 7
123 c7 155 -6 242 -58 373 -22 54 -38 100 -36 102 2 2 36 -30 77 -71 41 -41
78 -75 82 -75 22 0 5 82 -32 158 -131 272 -391 516 -750 705 -169 89 -534 215
-760 262 -155 32 -192 44 -184 57 4 6 22 8 40 5 19 -3 34 -2 34 2 0 5 21 14
46 21 31 9 41 16 32 21 -10 7 -10 9 2 9 37 0 222 -45 295 -72 44 -16 127 -40
183 -54 101 -24 172 -48 172 -58 0 -6 -65 1 -227 23 -67 10 -120 14 -117 9 11
-18 81 -38 257 -77 100 -22 190 -43 200 -47 12 -4 17 -1 17 13 0 42 -308 304
-515 437 -49 32 -91 60 -93 61 -2 1 24 61 58 133 33 72 60 134 60 138 0 4 14
52 31 108 35 113 41 111 53 -13 9 -93 19 -117 64 -163 26 -27 45 -38 66 -38
40 0 90 36 118 85 21 37 23 52 23 180 0 269 -46 455 -149 599 -40 57 -44 68
-51 141 -6 77 -20 172 -32 225 -5 21 1 17 36 -23 24 -26 47 -44 53 -41 16 10
3 123 -26 234 -32 123 -123 357 -193 492 -118 232 -298 470 -465 616 -180 156
-258 204 -378 232 -30 7 -61 16 -69 20 -8 4 -22 40 -32 80 -31 122 -123 266
-333 525 -45 55 -98 123 -119 151 -54 75 -63 81 -88 58 -12 -11 -31 -37 -42
-59 -31 -57 -30 -201 2 -304 12 -40 21 -74 19 -76 -2 -1 -41 19 -88 46 -100
58 -331 151 -520 209 -286 88 -474 163 -570 228 -48 33 -51 37 -30 40 14 1
618 1 1343 0 1051 -2 1319 -6 1326 -16 20 -33 121 -35 121 -2 0 16 40 17 663
16 364 -1 703 2 752 5 50 3 -2215 6 -5032 7 l-5123 2 2 -5122z m2208 5103 c0
-12 -103 -111 -115 -111 -5 0 -10 -11 -10 -24 0 -22 2 -23 17 -9 10 9 25 12
38 8 20 -6 20 -8 6 -24 -20 -22 -20 -31 0 -31 9 0 18 8 21 18 2 10 12 22 22
27 20 11 116 72 193 123 48 31 54 32 152 32 l101 0 -80 -38 c-44 -20 -102 -50
-129 -65 -27 -15 -52 -27 -57 -27 -5 0 -9 -4 -9 -10 0 -5 -6 -10 -12 -10 -18
0 -171 -151 -196 -194 -12 -20 -26 -42 -32 -49 -45 -53 -93 -138 -120 -212
-10 -27 -26 -70 -36 -95 -26 -68 -25 -211 3 -271 72 -158 239 -229 438 -185
109 24 186 59 350 163 86 55 239 202 286 277 24 38 49 75 55 81 18 18 69 123
94 195 18 49 24 88 24 155 1 136 -28 196 -124 257 l-45 29 115 -3 115 -3 35
-69 c31 -62 35 -77 35 -150 0 -114 -54 -296 -126 -419 -21 -38 -39 -71 -39
-73 0 -11 -125 -156 -182 -210 -96 -93 -190 -159 -313 -219 -184 -90 -369
-126 -534 -106 -143 18 -236 85 -295 211 -27 59 -30 74 -29 170 0 75 6 127 21
180 26 97 92 248 120 278 6 8 17 23 24 35 6 12 33 48 61 79 49 56 55 81 17 71
-16 -4 -51 -41 -82 -87 -16 -23 -18 4 -3 31 l17 28 -19 -25 c-10 -13 -30 -38
-44 -55 -47 -53 -119 -179 -108 -190 5 -5 9 -14 9 -20 0 -5 -4 -4 -9 3 -11 19
-56 -84 -81 -189 -24 -103 -25 -167 -3 -281 14 -77 19 -88 37 -88 15 0 31 -17
55 -57 19 -31 66 -89 105 -130 39 -40 74 -81 79 -91 5 -9 -11 4 -36 31 -44 46
-79 68 -41 26 65 -73 83 -90 117 -114 98 -66 135 -78 257 -83 100 -4 129 -1
220 21 114 28 224 65 200 67 -8 0 28 22 80 48 117 59 132 67 193 115 27 20 53
37 58 37 6 0 20 11 33 23 51 51 116 98 126 92 13 -8 55 35 129 130 106 137
136 193 186 348 47 147 48 150 42 249 -4 85 -10 109 -36 163 -17 34 -31 70
-31 79 0 9 -17 40 -38 69 -21 29 -42 58 -46 65 -6 9 48 12 254 12 l260 0 12
-25 c14 -30 43 -35 35 -5 -4 15 0 20 15 20 10 0 16 -4 13 -10 -3 -5 0 -10 8
-10 8 0 17 6 20 14 4 10 37 14 136 15 113 2 131 0 131 -13 0 -9 9 -16 19 -16
11 0 21 -4 23 -9 4 -12 118 8 118 21 0 5 13 7 30 3 19 -4 30 -3 30 4 0 8 196
11 668 11 l667 0 1 -73 c0 -63 5 -84 36 -148 20 -41 57 -96 82 -124 25 -27 46
-53 46 -56 0 -3 -21 -3 -47 1 -58 10 -356 27 -585 35 l-168 6 0 -29 c0 -54 92
-167 178 -217 17 -11 32 -22 32 -25 0 -3 -28 -12 -62 -18 -35 -7 -108 -24
-163 -37 -315 -76 -477 -114 -528 -125 -32 -6 -61 -18 -64 -26 -14 -38 96
-124 191 -149 32 -8 61 -16 63 -18 2 -2 -47 -38 -109 -80 -234 -158 -309 -237
-222 -237 37 0 29 -19 -40 -91 l-64 -66 -273 -6 c-151 -4 -286 -9 -301 -13
-39 -9 -55 -59 -70 -214 l-12 -132 36 -31 c35 -31 37 -35 43 -117 15 -211 59
-364 137 -480 l40 -61 -22 -79 c-13 -44 -28 -84 -34 -89 -7 -6 -54 -19 -106
-30 -52 -12 -166 -41 -255 -65 -88 -25 -223 -61 -300 -82 -143 -38 -283 -87
-367 -130 -46 -23 -82 -60 -73 -75 3 -4 36 -10 73 -14 97 -10 104 -17 46 -50
-27 -16 -62 -40 -78 -54 -62 -57 -170 -210 -223 -318 -46 -93 -59 -133 -79
-240 -14 -70 -28 -139 -31 -153 -4 -19 -10 -6 -29 59 -27 93 -31 101 -45 101
-24 0 3 -176 57 -361 111 -385 211 -599 362 -777 24 -29 42 -56 39 -59 -8 -7
-116 -5 -128 3 -5 3 -78 9 -162 14 -401 24 -1009 -59 -1259 -173 -87 -40 -152
-94 -168 -141 -5 -17 -11 -104 -13 -192 -2 -151 -1 -161 21 -191 28 -40 28
-48 -4 -86 l-26 -31 7 -171 8 -172 -86 -6 c-148 -10 -321 -93 -722 -346 -113
-71 -339 -239 -406 -302 -17 -16 -33 -29 -35 -29 -2 0 -4 872 -4 1939 l0 1938
83 7 c155 12 247 28 247 43 0 7 5 13 10 13 6 0 10 8 10 19 0 10 9 21 20 24 15
4 20 14 20 41 0 29 4 36 20 36 13 0 20 7 20 20 0 13 7 20 20 20 17 0 20 7 20
40 l0 40 80 0 c74 0 80 2 80 20 0 12 6 20 13 19 6 -1 42 -1 80 0 60 1 67 3 67
21 0 15 7 20 25 20 14 0 34 -9 45 -20 13 -13 33 -20 60 -20 38 0 40 2 40 30 0
17 5 30 10 30 6 0 10 -13 10 -30 0 -41 20 -38 21 3 1 17 3 24 6 14 2 -9 9 -15
14 -12 5 4 9 -3 9 -14 0 -20 6 -21 120 -21 113 0 120 1 120 20 0 17 7 20 40
20 40 0 40 0 40 40 l0 39 -77 3 c-99 4 -105 21 -11 36 40 6 74 16 76 21 2 6 8
11 14 11 6 0 8 -7 4 -15 -3 -10 1 -15 13 -15 12 0 18 7 17 17 0 12 7 19 22 21
12 2 22 8 22 13 0 5 36 9 80 9 89 0 86 3 81 -82 -5 -74 21 -104 38 -45 7 25 9
27 10 10 1 -21 6 -23 56 -23 l55 0 0 -40 0 -39 80 0 c72 0 80 2 80 20 0 16 7
19 40 19 33 0 40 3 40 20 0 17 7 20 40 20 l40 0 0 40 c0 39 1 40 34 40 27 0
35 -5 39 -22 2 -13 8 -31 12 -40 6 -16 1 -18 -39 -18 -46 0 -46 0 -46 -34 0
-19 -5 -38 -11 -42 -8 -4 -8 -9 0 -17 6 -6 11 -24 11 -39 0 -26 3 -28 40 -28
l40 0 0 -40 0 -40 -40 0 -40 0 0 -40 0 -40 40 0 c26 0 40 -5 40 -13 0 -9 12
-11 40 -9 25 3 40 0 40 -7 0 -6 17 -11 39 -11 22 0 43 -4 46 -10 3 -5 40 -10
81 -10 l74 0 0 30 c0 28 2 30 40 30 22 0 40 -4 40 -9 0 -5 18 -9 40 -9 22 0
40 3 40 9 0 5 7 9 15 9 20 0 65 45 65 65 0 8 9 15 20 15 17 0 20 7 20 40 l0
40 -40 0 c-33 0 -40 3 -40 20 0 16 8 19 58 22 l57 3 3 38 c3 36 4 37 43 37 32
0 39 -3 39 -20 0 -17 7 -20 40 -20 33 0 40 3 40 20 0 17 7 20 40 20 33 0 40
-3 40 -20 0 -13 7 -20 20 -20 13 0 20 7 20 20 0 13 7 20 20 20 13 0 20 7 20
20 0 18 7 20 80 20 73 0 80 2 80 20 0 19 7 20 100 20 93 0 100 1 100 20 0 13
7 20 20 20 13 0 20 7 20 20 0 17 7 20 53 21 28 0 77 3 107 7 140 15 158 11
175 -42 4 -13 9 -16 16 -9 6 6 2 30 -13 72 l-23 62 -1912 -1 -1913 0 0 169 0
169 73 4 c39 2 855 5 1812 6 957 1 1770 5 1807 8 l67 7 -19 25 c-23 28 -26
117 -10 252 4 41 8 75 7 75 -1 0 -249 -3 -552 -6 -529 -5 -553 -7 -640 -28
-76 -20 -107 -22 -195 -18 -58 3 -130 13 -160 23 -51 16 -136 18 -1122 21
l-1068 4 0 699 c0 686 0 700 19 700 27 0 35 17 14 29 -10 6 -14 11 -9 11 6 0
2 6 -7 13 -23 16 -11 56 18 63 13 3 26 12 29 20 5 12 165 14 1071 13 586 0
1065 -4 1065 -8z m60 -4 c-27 -15 -36 -14 -25 2 3 6 16 11 28 11 21 0 21 -1
-3 -13z m768 -70 c44 -21 88 -69 110 -120 30 -71 2 -244 -57 -339 -20 -33 -41
-69 -47 -80 -27 -47 -145 -173 -213 -227 -31 -25 -72 -60 -91 -78 -42 -40
-153 -106 -192 -114 -15 -4 -28 -5 -28 -3 0 8 46 82 63 101 11 12 43 30 71 39
28 9 83 34 123 56 81 44 121 90 154 177 21 56 21 72 -2 147 -12 42 -12 42 29
89 40 46 42 50 42 116 0 62 -2 70 -31 98 -17 17 -35 31 -40 31 -14 0 -11 127
4 133 18 7 57 -2 105 -26z m-440 -44 c5 -36 -38 -74 -88 -79 -57 -6 -80 7 -60
32 18 21 80 60 106 67 29 7 39 2 42 -20z m244 -44 l-3 -56 40 -12 c79 -23 92
-85 35 -162 -20 -27 -40 -49 -45 -49 -11 0 -49 -37 -49 -47 0 -5 14 -24 31
-43 26 -30 30 -41 26 -80 -9 -111 -134 -204 -297 -222 -20 -2 -32 -17 -59 -71
-28 -54 -39 -67 -55 -65 -24 3 -34 44 -17 61 14 14 14 54 1 62 -18 11 -59 -7
-66 -28 -17 -60 -48 -107 -70 -107 -29 0 -37 25 -19 60 19 38 19 66 -1 74 -9
3 -41 6 -72 6 -109 0 -110 41 -3 73 l63 18 88 182 c48 100 91 192 94 204 8 25
-3 34 -59 48 -28 8 -41 17 -43 32 -5 30 44 46 151 47 l92 1 25 52 c14 29 29
55 33 59 11 11 36 -28 37 -56 1 -65 42 -60 72 9 24 57 37 73 57 69 13 -3 15
-15 13 -59z m3138 46 c9 -8 66 -37 126 -64 101 -45 155 -64 429 -151 217 -69
503 -198 629 -283 34 -22 107 -76 164 -120 57 -43 106 -76 109 -73 12 12 -23
70 -82 136 -105 117 -165 270 -165 420 0 77 12 95 34 52 15 -28 113 -159 148
-196 31 -34 158 -224 200 -300 43 -78 45 -103 2 -29 -16 26 -38 59 -50 72 -12
13 -31 42 -42 65 -25 49 -80 111 -90 101 -4 -4 -2 -10 4 -12 7 -2 10 -13 7
-24 -3 -11 -11 -18 -18 -15 -9 3 -11 -2 -7 -16 5 -20 6 -20 18 -3 11 15 16 16
29 5 8 -7 15 -21 15 -32 0 -11 5 -29 11 -41 9 -16 9 -22 0 -25 -15 -5 -14 -25
4 -48 8 -10 14 -14 13 -9 -2 6 1 10 7 10 5 0 9 -3 8 -7 -2 -5 6 -8 16 -8 10 0
21 -7 25 -15 3 -8 12 -15 19 -15 10 0 13 -8 10 -24 -4 -18 0 -26 17 -31 14 -4
31 -27 46 -59 13 -29 35 -63 49 -76 13 -12 22 -27 19 -32 -8 -12 25 -48 43
-48 7 0 13 5 13 12 0 9 3 9 12 0 7 -7 18 -12 26 -12 8 0 30 -14 49 -31 27 -23
42 -29 59 -25 20 5 34 -3 74 -43 28 -28 50 -52 50 -55 0 -9 111 -169 135 -196
32 -36 59 -80 52 -86 -8 -8 -68 29 -108 66 -29 28 -49 38 -49 24 0 -3 16 -33
35 -65 19 -33 35 -62 35 -65 0 -3 17 -31 39 -62 21 -31 50 -80 64 -108 34 -66
57 -91 68 -72 7 11 9 11 9 0 0 -7 4 -11 9 -8 5 4 7 -3 4 -13 -3 -13 5 -30 22
-47 25 -25 26 -29 11 -39 -22 -16 -20 -25 4 -25 11 0 20 6 20 13 0 8 4 7 10
-3 16 -25 12 7 -6 42 -9 16 -11 27 -5 24 6 -4 11 -1 12 6 1 24 57 -156 63
-202 l5 -45 -16 45 c-16 44 -17 45 -27 20 -7 -16 -17 -24 -28 -22 -22 4 -26
-5 -32 -71 -5 -45 -3 -55 8 -51 9 3 16 -5 21 -23 3 -15 22 -47 41 -70 68 -83
25 -42 -67 65 -52 59 -109 123 -127 142 -18 19 -81 95 -140 168 -131 163 -141
168 -336 193 -77 10 -144 18 -149 19 -4 0 -17 12 -30 26 -12 15 -62 60 -112
102 -49 41 -95 80 -100 86 -22 23 -212 118 -272 136 -59 18 -288 8 -331 -14
-18 -9 -32 -18 -32 -20 0 -2 51 -1 113 2 201 8 302 -21 462 -137 78 -56 202
-168 194 -175 -3 -3 -63 1 -134 9 -297 32 -602 47 -1130 55 -405 6 -612 14
-785 29 -129 11 -296 23 -370 26 -74 3 -155 8 -180 11 l-45 6 27 23 c35 30
203 134 248 153 19 8 67 23 105 32 41 10 69 21 68 28 -2 9 23 12 85 12 75 0
134 -9 242 -35 l25 -7 -24 21 c-42 38 -125 56 -251 55 -120 0 -194 -9 -186
-23 6 -9 -47 -27 -109 -36 -21 -4 -52 -16 -69 -28 -16 -12 -51 -38 -77 -57
-27 -19 -69 -52 -94 -73 -45 -39 -92 -56 -152 -57 -18 0 -33 5 -33 11 0 8 -4
8 -14 0 -8 -7 -27 -11 -43 -9 -27 3 -26 5 47 79 41 42 95 89 120 105 25 15 65
46 89 67 l43 40 -38 -7 c-22 -4 -61 -14 -87 -23 -27 -8 -50 -13 -53 -11 -18
19 233 148 381 196 95 31 205 80 205 91 0 3 -69 4 -152 3 -125 -3 -171 0 -252
17 -55 11 -106 27 -114 34 -12 13 -1 18 84 37 55 12 178 42 276 65 187 46 388
80 528 90 111 8 150 14 150 24 0 5 -53 23 -117 41 -142 38 -203 65 -278 120
-52 39 -74 64 -63 75 3 3 29 1 59 -5 30 -5 153 -14 274 -20 240 -12 406 -30
558 -61 54 -11 101 -19 103 -16 5 5 -53 42 -140 92 -81 46 -179 151 -220 237
-20 41 -36 78 -36 82 0 10 13 7 30 -9z m-3672 -193 c2 -32 9 -46 28 -58 17
-11 24 -26 24 -46 0 -33 -43 -139 -72 -177 -10 -13 -18 -32 -18 -41 0 -23 -41
-62 -70 -67 -45 -7 -75 -29 -107 -78 -18 -27 -33 -60 -33 -72 0 -34 45 -63 99
-63 65 0 75 -9 68 -58 -5 -29 -3 -43 8 -52 20 -17 84 -24 124 -13 35 9 101 -4
101 -20 0 -27 -232 -41 -295 -17 -92 35 -129 96 -139 227 -11 148 23 256 127
411 28 42 57 82 62 87 6 6 24 27 39 48 15 21 33 36 39 34 7 -2 13 -22 15 -45z
m-494 -287 c-4 -8 -8 -15 -10 -15 -2 0 -4 7 -4 15 0 8 4 15 10 15 5 0 7 -7 4
-15z m1544 -101 c4 -45 -17 -91 -88 -183 -67 -88 -81 -99 -122 -99 -44 1 -46
39 -5 85 11 12 25 31 31 42 24 43 90 137 115 164 34 37 65 33 69 -9z m138 -38
c-21 -49 -28 -46 -9 4 9 22 18 38 20 36 2 -2 -3 -20 -11 -40z m4139 -76 c17
-33 10 -40 -11 -12 -13 17 -19 42 -9 42 2 0 11 -13 20 -30z m-4175 0 c0 -5 -5
-10 -11 -10 -5 0 -7 5 -4 10 3 6 8 10 11 10 2 0 4 -4 4 -10z m4400 -210 c0 -5
-8 -10 -17 -10 -15 0 -16 2 -3 10 19 12 20 12 20 0z m328 -236 c131 -120 259
-290 355 -472 84 -159 240 -522 223 -522 -2 0 -35 48 -71 107 -50 78 -71 123
-81 169 -21 102 -151 360 -254 504 -64 88 -151 183 -217 236 -34 27 -62 53
-62 57 -1 15 34 -11 107 -79z m-2893 -308 c248 -21 416 -28 839 -36 290 -5
565 -12 610 -15 398 -27 541 -38 666 -51 80 -8 186 -19 235 -24 134 -14 221
-30 240 -44 15 -11 16 -18 4 -69 -7 -31 -16 -51 -20 -45 -10 16 -29 0 -29 -26
0 -13 -7 -29 -15 -36 -8 -7 -15 -18 -14 -24 3 -27 -2 -38 -15 -33 -8 3 -20 -1
-26 -9 -14 -16 -50 -19 -50 -4 0 6 -5 10 -11 10 -6 0 -8 -7 -5 -16 4 -9 3 -22
-2 -28 -5 -6 -19 -38 -32 -71 -13 -33 -31 -78 -41 -101 -10 -22 -27 -65 -39
-94 -22 -57 -71 -134 -121 -190 -37 -42 -29 -25 24 50 60 86 107 194 168 388
45 144 51 215 18 232 -11 6 -79 17 -152 24 -73 8 -118 14 -101 15 17 0 49 8
70 17 l39 17 -30 9 c-32 9 -166 17 -400 23 -77 2 -165 8 -195 15 -52 11 -523
29 -583 22 -15 -2 -25 -7 -22 -12 7 -12 -20 -18 -81 -18 -29 0 -66 -8 -82 -16
-27 -14 -32 -14 -39 -1 -8 13 -11 13 -31 -1 -12 -8 -22 -21 -22 -27 0 -7 -14
-13 -32 -14 -20 0 -24 1 -10 4 12 2 22 8 22 13 0 13 -37 22 -62 15 -64 -18
-65 -19 -44 -3 18 14 17 15 -20 22 -162 27 -189 34 -149 36 l40 2 -50 10 c-27
6 -81 10 -120 9 -56 -1 -73 -5 -86 -21 -9 -10 -28 -22 -43 -26 -29 -7 -36 -38
-10 -48 22 -8 3 -32 -31 -38 -26 -5 -35 6 -36 50 0 21 -3 16 -13 -18 -54 -190
-76 -249 -139 -370 -129 -248 -192 -321 -336 -393 -111 -56 -198 -72 -336 -63
-175 11 -181 23 -9 18 178 -5 231 2 329 49 111 51 233 183 302 324 16 33 41
80 56 105 38 66 119 314 115 352 -3 28 -9 35 -41 45 -65 22 -157 33 -327 40
-108 5 -152 9 -126 14 21 3 47 4 56 2 10 -3 27 0 38 6 14 7 23 8 27 1 3 -5 11
-10 16 -10 6 0 4 6 -3 13 -8 7 -51 13 -118 15 -58 1 -118 5 -134 8 -19 4 -26
3 -22 -5 4 -6 27 -11 52 -11 28 0 43 -4 39 -10 -7 -12 -226 -12 -300 0 l-50 7
65 2 c36 1 83 6 105 10 30 7 8 9 -88 10 -97 1 -133 -3 -150 -14 -17 -11 -55
-15 -147 -15 -172 -1 -235 -8 -259 -32 -19 -17 -21 -31 -21 -136 0 -156 36
-448 62 -495 5 -10 8 -21 5 -23 -13 -13 -48 119 -66 249 -12 82 -21 154 -22
160 -2 39 -18 -40 -20 -98 -2 -66 -2 -63 -11 40 -5 61 -10 115 -12 121 -3 6
-19 14 -37 18 l-32 6 7 108 c9 143 11 150 49 155 18 3 264 4 547 2 451 -3 554
-7 825 -29z m-875 -145 l65 -6 -45 -21 c-32 -15 -82 -25 -173 -33 -193 -17
-187 -17 -187 24 l0 34 58 4 c95 6 213 5 282 -2z m529 -7 l64 -6 -54 -27 c-64
-32 -371 -204 -473 -265 -278 -167 -348 -207 -351 -204 -6 6 -35 112 -35 128
0 20 66 68 246 178 208 126 337 200 364 205 25 5 122 1 239 -9z m1814 9 c-7
-2 -19 -2 -25 0 -7 3 -2 5 12 5 14 0 19 -2 13 -5z m237 -8 l115 -14 -123 5
c-68 3 -134 9 -145 14 -20 8 -19 9 8 8 17 0 82 -6 145 -13z m210 -25 c0 -5 -2
-10 -4 -10 -3 0 -8 5 -11 10 -3 6 -1 10 4 10 6 0 11 -4 11 -10z m-1902 -15 c4
-3 0 -18 -9 -33 -16 -29 -65 -64 -229 -162 -58 -35 -179 -108 -270 -163 -91
-54 -214 -129 -275 -165 -60 -36 -117 -71 -125 -77 -8 -7 -34 -22 -56 -35
l-41 -22 -52 38 c-28 21 -51 41 -51 44 0 27 359 245 825 502 158 87 161 88
219 83 32 -2 61 -7 64 -10z m819 -97 c-2 -18 -4 -6 -4 27 0 33 2 48 4 33 2
-15 2 -42 0 -60z m-137 31 c8 -4 -89 -7 -217 -6 -127 1 -229 5 -225 9 16 16
411 14 442 -3z m1070 12 c11 -2 -120 -82 -325 -198 -121 -69 -245 -142 -275
-161 -82 -53 -150 -92 -158 -92 -9 0 -52 127 -52 152 0 9 17 25 38 35 20 11
80 45 132 77 176 108 214 130 280 163 l65 33 145 -4 c80 -3 147 -5 150 -5z
m354 -41 c48 0 49 0 32 -19 -17 -18 -93 -67 -346 -221 -58 -35 -170 -104 -250
-153 -80 -49 -203 -123 -275 -164 l-130 -74 -47 50 c-53 54 -59 76 -26 87 12
3 89 48 172 99 139 84 291 174 581 341 110 64 110 64 175 59 36 -3 87 -5 114
-5z m601 -30 c12 -24 12 -28 2 -24 -23 8 -39 -22 -44 -83 l-5 -58 162 -170
c143 -150 231 -248 335 -376 17 -20 66 -81 110 -135 44 -55 116 -137 160 -183
79 -83 80 -84 45 -77 -61 13 -68 16 -93 49 -14 18 -33 42 -43 54 -11 12 -45
55 -77 96 -32 42 -65 78 -73 81 -8 3 -11 12 -8 21 4 10 2 15 -7 13 -8 -2 -13
2 -12 8 1 7 -15 30 -36 52 -22 22 -37 43 -35 45 3 2 -3 10 -13 18 -15 12 -16
12 -9 -5 7 -19 6 -19 -14 -1 -11 10 -16 21 -11 25 6 3 6 11 1 20 -7 10 -10 11
-10 3 0 -12 -92 81 -161 162 -19 22 -69 78 -113 125 -43 47 -89 102 -103 123
-21 33 -22 42 -13 77 5 22 15 57 20 79 6 21 10 53 10 70 0 37 13 33 35 -9z
m-2622 -15 c-15 -47 -41 -78 -28 -34 9 29 34 79 40 79 2 0 -3 -20 -12 -45z
m117 6 c0 -21 -101 -234 -107 -227 -3 2 5 28 17 58 12 29 26 62 30 73 28 71
44 105 52 105 4 0 8 -4 8 -9z m362 -10 c59 -4 110 -10 113 -13 3 -3 16 -67 30
-144 14 -76 29 -157 35 -179 18 -74 15 -79 -27 -51 -50 32 -152 62 -257 76
-79 11 -183 5 -302 -16 l-31 -6 81 164 c74 146 85 164 111 169 41 9 121 9 247
0z m218 -17 c0 -8 -4 -12 -10 -9 -5 3 -10 13 -10 21 0 8 5 12 10 9 6 -3 10
-13 10 -21z m58 -87 c11 -88 44 -229 72 -302 6 -15 6 -24 1 -20 -16 9 -78 216
-85 280 -14 129 -15 158 -8 149 5 -5 14 -53 20 -107z m1972 -7 c6 -11 8 -20 6
-20 -3 0 -10 9 -16 20 -6 11 -8 20 -6 20 3 0 10 -9 16 -20z m-2023 -52 c-3 -8
-6 -5 -6 6 -1 11 2 17 5 13 3 -3 4 -12 1 -19z m2165 -109 c54 -63 98 -118 98
-122 0 -14 -58 37 -63 56 -4 12 -11 15 -23 10 -11 -4 -15 -3 -11 4 6 10 -47
75 -69 84 -5 2 -20 24 -32 48 -39 71 -5 44 100 -80z m438 -252 c16 -76 30
-147 30 -159 0 -20 -1 -20 -20 -3 -23 21 -36 61 -45 140 -9 80 -31 179 -55
240 -36 95 -30 100 15 10 34 -68 52 -124 75 -228z m-890 278 c0 -2 -15 -46
-34 -97 -78 -213 -143 -324 -245 -421 -122 -115 -234 -151 -461 -150 -143 1
-295 18 -438 49 -41 9 -71 18 -69 21 3 2 41 -2 84 -11 108 -21 363 -39 453
-32 291 24 451 155 626 514 36 72 69 132 75 132 5 0 9 -2 9 -5z m172 -110 c41
-49 114 -135 162 -190 85 -96 121 -146 97 -131 -6 4 5 -30 25 -76 61 -143 70
-326 15 -311 -16 4 -20 -8 -30 -89 -7 -51 -16 -104 -21 -118 -9 -29 -8 -30
-40 79 -56 194 -168 381 -325 548 l-96 103 35 95 c46 122 85 200 96 189 4 -5
41 -49 82 -99z m-2280 -15 c-29 -4 -56 -11 -60 -15 -4 -3 13 -24 36 -46 24
-22 42 -45 39 -52 -4 -13 -270 -28 -289 -16 -6 4 -8 20 -5 38 9 42 -5 39 -54
-10 -40 -40 -40 -25 1 19 61 64 145 92 280 90 91 0 98 -2 52 -8z m-3885 -62
c-3 -7 -5 -2 -5 12 0 14 2 19 5 13 2 -7 2 -19 0 -25z m-22 12 c3 -5 -1 -10 -9
-10 -8 0 -18 5 -21 10 -3 6 1 10 9 10 8 0 18 -4 21 -10z m6613 -35 c-3 -3 -13
7 -23 22 l-17 28 23 -22 c12 -12 20 -25 17 -28z m-3124 23 c-155 -262 -285
-337 -584 -337 -93 0 -278 22 -325 38 l-30 11 35 -5 c199 -28 326 -32 426 -14
94 16 241 77 290 120 62 53 104 97 148 152 36 45 56 62 40 35z m-1146 -50 c20
-23 57 -54 81 -70 52 -32 48 -37 -7 -9 -33 17 -122 101 -122 116 0 12 12 3 48
-37z m4341 -52 c-2 -2 -13 8 -23 22 l-19 27 24 -22 c12 -12 21 -24 18 -27z
m-7291 -2 c12 -10 17 -24 14 -40 -4 -20 -10 -24 -43 -24 -32 0 -39 3 -39 20 0
22 20 26 38 8 9 -9 13 -7 18 6 4 11 0 22 -12 31 -11 8 -14 15 -7 15 7 0 21 -7
31 -16z m5123 -21 c13 -16 12 -17 -3 -4 -10 7 -18 15 -18 17 0 8 8 3 21 -13z
m-945 -284 c66 -67 138 -94 299 -114 166 -20 244 -11 352 43 83 40 162 112
191 173 l17 36 50 -45 c151 -136 283 -189 556 -226 209 -29 371 -88 500 -182
214 -157 346 -329 380 -492 20 -94 -7 -203 -69 -281 l-19 -24 -7 81 c-4 44
-13 87 -19 96 -10 14 -15 10 -36 -33 -38 -82 -158 -217 -176 -199 -3 3 4 17
16 32 12 15 20 29 18 31 -3 2 -29 -12 -59 -32 -86 -55 -207 -111 -266 -123
-36 -8 -77 -9 -117 -3 -68 9 -66 5 -82 114 -3 19 -12 44 -20 55 -15 18 -16 18
-37 -11 -80 -107 -172 -173 -293 -211 -64 -19 -117 -27 -260 -35 -220 -13
-316 -8 -381 20 -61 27 -139 86 -228 170 l-68 66 7 -35 c16 -70 4 -150 -21
-150 -46 0 -308 164 -368 230 -21 23 -39 40 -41 38 -2 -2 8 -30 21 -63 31 -73
34 -91 14 -87 -8 2 -35 6 -59 8 -52 5 -62 10 -160 81 -42 30 -103 68 -135 85
-75 38 -164 122 -222 209 -43 65 -84 163 -84 201 0 38 -19 16 -26 -29 -10 -72
-17 -80 -44 -52 -30 32 -66 114 -81 186 -23 113 39 294 127 372 55 48 153 82
304 105 85 13 122 25 196 62 50 25 115 67 145 93 l54 49 42 -81 c23 -44 63
-102 89 -128z m1076 167 c123 -77 384 -122 620 -106 131 9 178 26 290 101 35
23 57 35 49 26 -28 -35 -111 -88 -177 -113 -60 -23 -88 -28 -212 -32 -150 -5
-230 4 -382 40 -86 21 -219 78 -241 104 -18 22 -4 17 53 -20z m-2277 -46 c15
-17 16 -22 4 -38 -8 -11 -41 -58 -73 -106 -33 -47 -61 -84 -63 -82 -6 6 56
180 78 215 22 36 30 38 54 11z m1931 -67 c-51 -46 -133 -93 -162 -93 -10 0 9
13 42 30 32 16 82 49 109 74 28 24 52 42 55 39 3 -3 -17 -25 -44 -50z m-501
-73 c-8 -13 -35 -13 -55 0 -11 7 -5 10 23 10 23 0 36 -4 32 -10z m-1410 -122
c-13 -80 -15 -138 -10 -263 4 -91 3 -177 -3 -200 l-9 -40 -13 30 c-17 41 -25
283 -12 382 11 82 53 225 60 205 2 -6 -4 -58 -13 -114z m1609 101 c57 -10 72
-19 29 -19 -34 0 -93 18 -108 33 -7 7 -3 7 10 2 11 -4 42 -11 69 -16z m-1824
-6 c-1 -5 -7 -35 -15 -68 -22 -88 -20 -142 5 -150 21 -7 59 10 75 32 8 11 10
-22 7 -112 -5 -149 9 -250 48 -355 35 -90 38 -106 25 -103 -6 1 -12 -23 -13
-58 -3 -69 -51 -184 -81 -194 -10 -3 -31 -23 -46 -45 -15 -22 -31 -37 -36 -34
-5 3 -22 -9 -39 -27 -22 -24 -26 -35 -17 -41 9 -6 7 -13 -8 -26 -12 -9 -24
-25 -28 -34 -3 -10 -16 -18 -27 -18 -11 0 -20 -7 -20 -15 0 -25 -2 -29 -19
-42 -12 -9 -18 -9 -24 0 -8 13 -37 -17 -37 -40 0 -7 -6 -10 -15 -7 -9 4 -25
-6 -41 -25 -27 -32 -64 -42 -64 -16 0 24 -17 17 -24 -10 -4 -14 -14 -26 -24
-26 -9 -1 -24 -3 -32 -4 -8 -1 -21 -3 -27 -4 -7 0 -13 -8 -13 -16 0 -8 -9 -15
-20 -15 -11 0 -20 4 -20 9 0 14 -111 21 -134 8 -12 -6 -29 -10 -39 -8 -9 1
-24 -5 -33 -13 -8 -9 -26 -16 -40 -16 -18 0 -24 -5 -24 -22 -1 -19 -9 -14 -56
37 -69 73 -111 137 -125 187 -5 21 -14 38 -20 38 -12 0 -11 -264 2 -298 5 -13
5 -21 0 -18 -5 3 -21 36 -36 73 -15 38 -40 96 -56 131 -16 35 -29 69 -29 77 0
8 -15 39 -34 68 -60 94 -76 127 -77 160 -1 30 -1 31 -9 7 -28 -87 19 -391 80
-509 31 -62 125 -172 209 -246 76 -66 88 -85 55 -85 -24 0 -64 24 -139 84 -38
31 -74 56 -78 56 -16 0 80 -114 256 -304 20 -22 37 -47 37 -57 0 -20 -35 -53
-49 -45 -13 9 -118 147 -169 224 -69 104 -160 284 -192 380 -40 119 -58 316
-41 454 11 94 83 324 132 420 28 55 106 166 139 198 50 48 154 122 204 144 28
13 66 37 83 55 18 17 39 31 47 31 8 0 17 4 20 8 2 4 -27 6 -66 4 -85 -5 -106
9 -46 31 51 19 224 62 288 72 41 6 102 23 360 99 93 27 110 30 110 19z m4829
-345 c-2 -78 -2 -80 -9 -33 -12 72 -11 115 0 115 6 0 9 -33 9 -82z m-137 -108
c-14 -137 -59 -278 -144 -450 l-62 -125 -7 40 c-11 60 5 153 40 221 17 34 35
84 41 110 5 27 12 59 15 72 3 13 13 22 23 22 18 0 26 26 48 165 8 47 32 81 48
65 6 -6 6 -46 -2 -120z m284 3 c22 -118 24 -255 5 -300 -14 -33 -49 -63 -75
-63 -15 0 -36 56 -36 95 1 19 1 19 14 3 41 -54 61 17 51 181 -11 199 11 244
41 84z m-129 -65 c-2 -13 -4 -5 -4 17 -1 22 1 32 4 23 2 -10 2 -28 0 -40z
m-4477 -174 c55 -110 144 -237 206 -296 93 -87 261 -218 329 -256 41 -23 102
-62 136 -87 65 -48 82 -55 72 -29 -5 13 -3 14 13 6 33 -18 110 -94 99 -98 -6
-3 -62 22 -125 54 -478 244 -764 536 -807 828 -12 79 -3 104 13 34 7 -30 35
-100 64 -156z m4030 -189 c-18 -97 -89 -228 -176 -327 -43 -49 -80 -88 -85
-88 -7 0 48 176 78 250 8 19 34 58 59 85 58 63 88 114 111 190 l18 60 3 -55
c2 -30 -2 -82 -8 -115z m-190 -111 c0 -3 -19 -43 -42 -87 -52 -100 -149 -202
-228 -240 -52 -25 -185 -57 -233 -57 -18 1 -16 3 9 14 29 13 54 36 39 36 -3 0
-54 -23 -113 -51 -136 -65 -250 -100 -515 -159 -75 -16 -321 -40 -406 -39
l-76 1 125 18 c266 37 496 94 721 175 80 30 174 59 208 65 127 23 288 120 416
249 73 74 95 92 95 75z m393 -135 c76 -38 210 -126 256 -168 37 -34 36 -36 -6
-20 -77 30 -286 100 -343 114 -36 9 -67 18 -69 20 -6 6 73 82 87 84 7 0 41
-13 75 -30z m-4717 -204 c-3 -20 -24 -40 -32 -32 -4 4 1 16 11 27 22 24 24 25
21 5z m894 5 c0 -5 -1 -11 -2 -12 -1 -2 4 -13 11 -25 10 -20 9 -23 -8 -23 -21
0 -41 27 -41 54 0 9 9 16 20 16 11 0 20 -4 20 -10z m-156 -72 c27 -18 37 -35
55 -95 11 -40 27 -73 34 -73 9 0 9 -2 -1 -9 -8 -4 -16 -26 -19 -48 -4 -33 2
-55 30 -114 19 -41 42 -95 51 -121 21 -57 77 -133 114 -152 l27 -14 -40 -10
c-22 -5 -74 -17 -115 -27 -213 -49 -413 -199 -507 -381 -53 -102 -66 -166 -61
-290 4 -93 7 -104 47 -184 24 -47 56 -103 72 -124 16 -22 27 -41 26 -43 -2 -1
-55 17 -118 41 -116 44 -307 107 -434 144 -66 19 -277 70 -538 128 -64 14
-119 30 -122 34 -3 4 30 57 72 117 65 90 94 120 170 177 51 39 91 72 88 74 -8
9 -160 -53 -204 -83 -73 -49 -75 -50 -63 -28 6 11 18 26 27 33 8 7 34 35 56
61 l41 49 -54 -36 c-29 -20 -65 -47 -79 -60 -22 -21 -30 -23 -53 -14 -15 5
-38 10 -52 10 -24 0 -32 14 -14 25 6 3 10 15 10 26 0 17 -3 18 -20 7 -11 -7
-21 -22 -21 -33 -1 -17 -2 -18 -6 -2 -10 37 187 220 402 373 95 68 287 185
440 269 155 85 367 213 481 292 90 61 131 83 155 84 27 1 58 7 87 18 1 1 17
-9 36 -21z m246 14 c0 -5 -7 -9 -15 -9 -8 0 -15 4 -15 9 0 4 7 8 15 8 8 0 15
-4 15 -8z m522 -85 c40 -23 86 -70 112 -115 4 -7 -23 10 -61 38 -37 27 -85 62
-105 76 -21 15 -52 43 -70 62 l-33 35 55 -35 c30 -20 76 -47 102 -61z m-2002
23 c0 -5 -4 -10 -9 -10 -6 0 -13 5 -16 10 -3 6 1 10 9 10 9 0 16 -4 16 -10z
m1390 -9 c0 -3 11 -19 25 -36 l24 -30 27 29 28 29 10 -22 c16 -37 -4 -56 -61
-59 -38 -2 -53 1 -66 16 -18 20 -39 77 -31 85 7 6 44 -4 44 -12z m3015 -12
c10 -15 -15 -69 -32 -69 -13 0 -13 3 -3 15 7 8 10 25 6 40 -5 18 -2 25 8 25 8
0 18 -5 21 -11z m645 -33 c-6 -8 -46 -23 -88 -32 -96 -21 -121 -39 -37 -27 33
4 125 8 205 8 125 -1 160 -5 250 -28 129 -34 191 -57 184 -68 -3 -5 7 -14 23
-19 15 -6 36 -15 45 -20 10 -6 25 -10 33 -10 8 0 15 -4 15 -9 0 -5 14 -11 31
-15 20 -4 33 -13 36 -27 3 -11 24 -29 49 -40 28 -14 44 -28 46 -42 2 -12 8
-22 15 -22 12 0 53 -48 53 -63 0 -18 30 -68 55 -92 14 -13 25 -27 25 -31 0 -9
-47 3 -79 21 -12 6 -30 10 -39 8 -12 -3 7 -27 71 -89 77 -74 106 -119 78 -119
-5 0 9 -36 30 -80 21 -43 39 -84 39 -89 0 -6 11 -36 25 -67 34 -77 33 -97 -2
-61 -52 52 -117 99 -121 87 -2 -6 7 -24 20 -38 34 -37 105 -198 93 -211 -6 -6
-6 -6 -43 70 -30 62 -158 226 -169 215 -3 -2 8 -31 23 -63 24 -49 29 -73 32
-155 2 -54 0 -98 -5 -98 -14 0 -33 23 -33 40 0 13 1 13 10 0 8 -12 10 -12 10
5 0 18 -6 20 -52 20 -43 -1 -54 -4 -56 -19 -6 -30 -174 -100 -387 -161 -204
-58 -420 -130 -510 -170 -27 -13 -71 -32 -97 -44 -46 -20 -83 -53 -42 -37 33
14 94 19 94 9 0 -6 -9 -18 -20 -28 -19 -17 -20 -17 -20 -1 0 9 -4 14 -10 11
-11 -7 -14 -38 -2 -32 4 3 16 1 27 -3 16 -6 12 -9 -22 -14 -32 -6 -42 -13 -47
-32 -4 -13 -11 -24 -17 -24 -7 0 -5 -10 4 -24 19 -28 5 -47 -28 -42 -11 2 -32
-3 -46 -10 -30 -15 -39 -46 -39 -141 0 -106 -47 -165 -356 -446 -71 -65 -148
-130 -171 -145 -24 -15 -59 -37 -79 -50 -23 -14 -56 -24 -94 -26 -65 -4 -70 0
-70 60 0 55 -14 40 -38 -41 -18 -61 -25 -73 -39 -68 -13 5 -15 2 -10 -11 6
-15 1 -17 -38 -15 -38 2 -48 8 -67 36 -18 26 -30 33 -56 33 -18 0 -42 -5 -52
-10 -28 -15 -34 20 -27 168 3 69 2 121 -2 116 -4 -5 -16 -29 -25 -53 -10 -25
-26 -57 -36 -71 -10 -14 -22 -38 -25 -53 -4 -15 -11 -27 -16 -27 -5 0 -17 -16
-26 -35 -9 -19 -20 -35 -24 -35 -13 0 -39 -62 -39 -92 0 -37 -16 -28 -24 14
-35 171 -40 273 -19 357 11 43 -13 14 -51 -62 -20 -40 -36 -79 -36 -85 0 -16
-17 -15 -23 2 -3 9 -15 12 -31 9 -24 -5 -26 -3 -27 33 -2 78 -2 92 5 120 6 26
5 27 -6 9 -6 -11 -13 -36 -14 -55 -4 -45 -24 -229 -29 -255 -2 -11 -2 52 1
140 4 129 10 179 31 260 58 222 195 467 350 621 19 20 33 38 30 41 -11 10
-136 -60 -193 -108 -32 -27 -62 -49 -66 -49 -12 0 9 47 42 94 48 71 196 201
329 291 142 95 188 131 179 140 -6 6 -167 -54 -230 -86 -74 -38 -34 10 72 87
231 168 608 312 995 379 141 25 445 30 590 11 65 -9 124 -16 130 -16 19 1 -50
33 -132 61 -135 46 -242 63 -400 63 l-142 0 57 31 c32 17 71 40 87 51 44 30
199 100 275 124 l25 8 -28 1 c-16 1 -76 -10 -135 -23 -59 -13 -124 -27 -145
-30 -26 -5 -37 -11 -34 -20 4 -9 -1 -12 -13 -9 -11 3 -16 11 -13 19 7 18 -57
20 -75 2 -8 -8 -15 -8 -27 2 -20 17 -142 -2 -240 -37 -132 -47 -237 -73 -232
-59 6 16 -16 24 -59 21 -42 -2 -147 -36 -159 -50 -14 -17 -55 -26 -55 -12 0 7
-3 23 -7 37 -3 14 -2 22 2 18 9 -9 35 9 35 24 0 6 -9 8 -21 5 -12 -3 -27 1
-38 12 -14 14 -24 15 -52 8 -18 -5 -40 -13 -46 -19 -7 -6 -22 -8 -33 -5 -10 3
-25 -1 -31 -9 -8 -10 -15 -11 -24 -4 -8 6 -19 4 -33 -6 -12 -8 -41 -17 -64
-19 -56 -6 -98 -26 -98 -47 0 -14 9 -18 38 -19 l37 -2 -40 -7 c-22 -4 -49 -11
-59 -15 -13 -6 -17 -5 -13 2 4 6 -3 8 -18 5 -13 -2 -27 -13 -30 -23 -4 -10
-13 -19 -21 -19 -8 0 -14 -4 -14 -10 0 -5 -7 -10 -15 -10 -8 0 -15 -7 -15 -15
0 -9 -7 -18 -15 -21 -17 -7 -22 -84 -5 -84 6 0 10 -9 10 -20 0 -11 5 -20 10
-20 6 0 10 -9 10 -20 0 -11 -4 -20 -10 -20 -5 0 -10 9 -10 20 0 11 -4 20 -10
20 -5 0 -10 -12 -10 -27 0 -20 -3 -24 -11 -16 -6 6 -18 9 -25 6 -16 -6 -38 42
-27 60 4 6 0 8 -10 4 -11 -4 -20 1 -27 13 -13 23 0 27 30 8 10 -7 22 -9 26 -5
9 9 -20 51 -63 89 -141 127 -149 136 -135 158 12 20 6 25 -22 14 -9 -3 -16
-13 -16 -21 0 -10 -6 -12 -22 -7 -13 3 5 -12 39 -35 54 -37 163 -147 163 -166
0 -3 -13 3 -28 14 -33 23 -125 61 -149 61 -9 0 18 -33 64 -78 64 -63 89 -97
131 -179 29 -56 52 -105 52 -108 0 -4 -18 -5 -41 -2 l-40 5 17 -26 c9 -15 30
-44 47 -65 51 -65 24 -50 -61 34 -45 44 -82 77 -82 72 0 -8 49 -89 83 -136 12
-17 24 -63 32 -129 l14 -103 -42 -69 c-23 -38 -50 -88 -59 -110 l-17 -41 -2
65 -2 65 -9 -75 c-6 -46 -22 -104 -42 -150 -18 -41 -39 -90 -46 -108 -11 -29
-14 -31 -25 -15 -11 15 -14 9 -26 -41 -7 -32 -18 -64 -24 -70 -7 -7 -31 -59
-54 -116 -45 -112 -65 -150 -81 -150 -6 0 -10 10 -10 23 0 34 -11 67 -20 62
-5 -3 -11 -31 -15 -63 -8 -73 -24 -115 -41 -108 -9 3 -29 -17 -53 -52 -22 -31
-62 -79 -90 -107 -28 -27 -51 -55 -51 -62 0 -22 -14 -15 -71 37 -141 131 -443
367 -589 459 -144 92 -155 98 -236 141 -43 22 -112 61 -153 85 l-74 43 39 7
c155 27 277 78 385 161 130 100 231 242 265 375 42 161 5 356 -92 485 l-23 31
56 7 c66 8 130 34 157 65 l19 21 23 -21 c30 -28 107 -36 155 -16 20 8 52 29
72 47 l37 32 37 -17 c27 -13 53 -16 102 -13 82 6 125 28 147 73 19 40 21 41
54 18 22 -16 53 -18 235 -19 l210 -1 60 29 c33 16 80 33 105 37 103 19 207 44
252 61 47 18 59 15 37 -7 -8 -8 2 -10 38 -8 57 3 83 13 83 29 0 26 -21 26 -82
1 -10 -4 -18 -3 -18 2 0 5 6 10 13 10 6 0 32 9 57 20 114 50 130 55 149 50 11
-3 22 0 24 7 3 8 10 8 25 -1 16 -10 23 -9 32 2 7 8 21 15 32 15 11 0 34 11 52
25 18 14 36 25 40 25 4 0 32 16 62 35 30 19 56 35 58 35 3 0 44 23 93 51 187
109 199 113 296 114 67 0 90 4 97 15 7 12 2 18 -23 26 -30 11 -29 12 38 16
175 10 218 9 205 -6z m-2421 -20 c-6 -7 -237 -92 -284 -105 -39 -11 -183 -41
-197 -41 -5 0 -8 4 -8 9 0 4 24 11 54 14 29 3 131 32 227 65 153 53 222 72
208 58z m121 -52 c7 -12 -83 -41 -151 -49 l-54 -7 41 25 c23 14 54 29 68 33
33 11 89 10 96 -2z m-971 -29 c6 -3 53 -17 103 -29 90 -22 92 -23 101 -57 11
-42 34 -69 59 -69 10 0 33 -7 49 -16 18 -9 49 -14 74 -13 24 2 49 -2 57 -8 8
-7 74 -12 177 -13 90 0 169 -4 175 -8 6 -3 20 -6 31 -5 11 1 5 -5 -15 -13 -19
-9 -51 -35 -70 -59 -40 -50 -45 -51 -89 -29 -54 27 -128 15 -190 -31 -50 -36
-54 -37 -90 -26 -52 15 -115 14 -157 -4 -34 -14 -36 -13 -80 20 -49 37 -87 51
-177 61 -66 8 -80 21 -95 92 -6 23 -18 55 -28 70 -10 15 -19 47 -20 72 0 25
-4 57 -8 71 l-7 26 94 -13 c53 -6 100 -15 106 -19z m1209 30 c-6 -6 -177 -45
-198 -44 -36 0 26 21 98 34 92 15 107 17 100 10z m862 -24 c0 -5 -7 -14 -16
-21 -8 -8 -21 -28 -29 -47 -14 -34 -41 -44 -51 -19 -7 20 24 72 50 85 27 12
46 14 46 2z m-2321 -27 c20 -44 -6 -87 -28 -46 -5 10 -21 24 -35 32 -30 16
-33 27 -8 33 42 11 59 6 71 -19z m-119 -19 c0 -13 5 -27 10 -30 17 -10 11 -39
-10 -53 -19 -11 -22 -9 -35 22 -19 44 -19 46 1 74 18 26 34 20 34 -13z m2570
-16 c0 -26 -33 -75 -61 -91 -32 -19 -109 -25 -109 -9 0 5 21 14 46 20 33 9 50
19 62 41 9 17 23 30 30 30 6 0 12 5 12 10 0 6 5 10 10 10 6 0 10 -5 10 -11z
m-400 -31 c-23 -12 -55 -38 -72 -59 -37 -46 -51 -50 -42 -11 10 41 57 84 101
92 55 10 60 1 13 -22z m134 -4 c26 -10 18 -24 -14 -24 -16 0 -30 -4 -30 -10 0
-5 -9 -10 -21 -10 -15 0 -19 4 -15 16 3 9 6 20 6 25 0 10 50 12 74 3z m-2147
-66 c32 -30 30 -50 -6 -46 -32 3 -61 -16 -61 -41 0 -9 -5 -22 -11 -28 -14 -14
48 -63 79 -63 12 0 22 -4 22 -9 0 -18 -39 -22 -62 -7 -21 14 -84 84 -102 114
-12 20 13 43 40 36 18 -5 26 -1 30 12 8 21 34 54 42 54 3 0 16 -10 29 -22z
m1703 -20 c-79 -71 -110 -92 -121 -81 -16 16 15 68 58 98 23 15 51 25 73 25
l35 -1 -45 -41z m449 26 c6 -6 -69 -93 -91 -105 -21 -11 -73 -5 -114 13 -37
17 -19 27 41 21 50 -5 56 -4 84 25 17 17 31 38 31 47 0 12 5 15 23 9 12 -3 24
-8 26 -10z m-334 -20 c34 -22 31 -32 -9 -40 -19 -3 -37 -13 -40 -21 -3 -8 -11
-11 -16 -8 -8 5 -8 11 0 20 6 8 11 22 10 32 -4 39 13 44 55 17z m-417 -77
c-24 -24 -51 -56 -61 -71 -13 -18 -26 -26 -40 -24 -35 5 -33 41 4 83 37 42 60
53 107 54 l32 1 -42 -43z m-168 9 c0 -11 -19 -15 -25 -6 -3 5 1 10 9 10 9 0
16 -2 16 -4z m289 -17 c29 -23 28 -24 -26 -33 -41 -6 -43 -5 -43 18 0 39 32
46 69 15z m-1459 -28 c27 -21 26 -25 -5 -35 -16 -5 -24 1 -35 27 -7 17 -15 36
-18 40 -5 11 25 -6 58 -32z m1610 29 c0 -5 -7 -10 -16 -10 -8 0 -12 5 -9 10 3
6 10 10 16 10 5 0 9 -4 9 -10z m155 -17 c-15 -63 -82 -93 -158 -72 -44 12 -49
28 -9 31 15 1 36 2 47 3 11 1 28 3 37 4 10 0 30 15 45 31 33 37 47 38 38 3z
m-638 -38 c29 -14 53 -29 53 -34 0 -5 -19 -15 -42 -23 l-43 -14 0 31 c0 28 -3
30 -35 30 -31 0 -39 -6 -65 -47 -47 -75 -105 -78 -84 -5 13 48 68 87 123 87
21 0 63 -11 93 -25z m183 -25 c0 -5 -5 -10 -11 -10 -5 0 -7 5 -4 10 3 6 8 10
11 10 2 0 4 -4 4 -10z m150 -8 c0 -65 -127 -108 -170 -58 -8 11 2 14 51 18 53
4 65 8 81 31 23 31 38 35 38 9z m-1243 -31 c37 -18 60 -47 49 -59 -3 -2 -35 7
-71 22 -84 33 -106 33 -138 -4 -32 -35 -67 -40 -67 -10 0 12 17 32 43 51 37
28 48 30 93 26 28 -3 69 -14 91 -26z m617 -13 l41 -43 -30 -3 c-16 -2 -36 -8
-42 -14 -10 -8 -13 0 -13 36 0 33 -4 46 -14 46 -21 0 -117 -66 -148 -102 l-27
-31 6 39 c11 77 56 113 142 114 38 0 48 -5 85 -42z m183 -14 c-3 -3 -12 -4
-19 -1 -8 3 -5 6 6 6 11 1 17 -2 13 -5z m121 -51 c-33 -40 -117 -55 -156 -27
-36 25 -26 33 43 31 59 -2 67 1 92 26 27 27 28 27 31 7 2 -12 -2 -28 -10 -37z
m-626 31 c50 -8 66 -28 44 -52 -9 -10 -16 -32 -16 -49 0 -60 -77 -94 -142 -61
-21 10 -38 23 -38 28 0 13 37 13 45 0 12 -19 65 -11 90 15 30 29 32 51 6 58
-14 3 -18 11 -14 26 9 34 -46 28 -81 -8 -39 -41 -63 -45 -69 -13 -3 18 2 32
20 49 25 26 46 27 155 7z m-300 -29 c34 -23 57 -59 44 -72 -3 -3 -12 0 -20 6
-8 7 -47 25 -87 40 l-72 28 24 17 c29 20 59 15 111 -19z m478 -24 c0 -5 -7
-12 -16 -15 -24 -9 -28 -7 -14 9 14 17 30 20 30 6z m160 -21 c0 -14 -63 -48
-103 -55 -27 -5 -44 -3 -63 10 -36 23 -14 37 46 29 36 -5 50 -2 70 14 23 19
50 20 50 2z m3873 -72 c43 -46 87 -98 98 -117 16 -27 4 -20 -63 41 -46 41
-105 92 -133 113 -75 58 -75 58 -25 51 40 -5 53 -14 123 -88z m-4668 68 c131
-35 246 -111 302 -200 74 -116 70 -293 -9 -450 -75 -149 -299 -320 -470 -361
-80 -19 -213 -19 -301 0 -139 29 -259 123 -318 249 -134 287 105 664 479 756
92 22 246 26 317 6z m-2180 -100 c113 -19 137 -26 132 -39 -9 -28 -37 -31
-129 -14 -418 77 -1167 -14 -1320 -160 -48 -46 -31 -106 40 -142 151 -77 502
-114 861 -92 101 6 186 9 189 6 3 -3 1 -15 -5 -28 -6 -12 -14 -30 -17 -39 -3
-10 -15 -18 -28 -18 -13 0 -55 -7 -93 -15 -49 -10 -137 -15 -290 -16 -218 0
-296 -8 -226 -22 19 -4 94 -7 167 -7 128 0 172 -11 101 -24 -30 -6 -33 -9 -29
-35 2 -17 -2 -34 -12 -44 -9 -9 -23 -32 -32 -52 -8 -20 -22 -39 -32 -42 -14
-6 -13 -8 8 -14 14 -4 -39 -7 -117 -8 -124 -1 -158 3 -270 29 -158 36 -335 92
-388 123 -22 12 -45 34 -52 47 -16 31 -16 124 1 263 12 101 15 110 46 142 18
19 54 44 79 56 69 33 257 89 336 100 39 5 109 16 156 25 202 37 300 43 569 39
168 -3 298 -10 355 -19z m6805 -116 c52 -87 107 -232 120 -319 12 -75 0 -292
-22 -381 -24 -100 -112 -244 -217 -354 -90 -93 -296 -239 -370 -261 -20 -6
-15 4 32 56 31 35 71 90 89 122 18 32 44 71 57 85 13 15 18 19 11 10 -8 -12
-9 -18 -2 -18 6 0 14 9 17 20 3 11 11 20 17 20 5 0 7 7 4 16 -3 8 -2 13 3 10
19 -12 181 193 213 269 26 60 55 169 74 273 28 154 -2 362 -73 507 -29 61 -5
33 47 -55z m-6995 26 c44 -3 113 -14 154 -24 l74 -18 -30 -22 c-63 -45 -159
-62 -202 -35 -12 8 -52 19 -87 24 -54 8 -74 6 -129 -12 -36 -12 -65 -25 -65
-29 0 -4 -42 -6 -92 -3 -86 4 -91 3 -74 -11 16 -13 97 -23 138 -17 130 18 239
23 267 12 17 -8 31 -17 31 -22 0 -27 -151 -55 -405 -74 -128 -9 -291 19 -289
50 1 6 11 15 23 21 24 13 56 52 48 60 -10 10 -76 -25 -87 -46 -30 -57 22 -101
144 -121 77 -12 112 -11 456 16 57 4 111 25 144 56 10 10 25 15 32 12 9 -3 31
11 54 36 22 22 43 41 47 41 4 0 -9 -17 -28 -37 -19 -21 -52 -59 -73 -86 -21
-26 -42 -45 -47 -42 -5 4 -9 2 -9 -2 0 -5 -55 -17 -122 -27 -173 -27 -503 -25
-693 4 -144 22 -232 49 -260 80 -16 18 -17 21 -1 45 40 61 260 129 466 145 69
5 133 12 141 15 21 8 271 22 339 18 30 -1 91 -5 135 -7z m299 -129 c-2 -7 -14
-19 -27 -26 -21 -13 -21 -12 2 13 27 29 33 32 25 13z m267 -74 c-5 -10 -25
-34 -45 -52 -20 -19 -36 -41 -36 -48 0 -7 -9 -13 -20 -13 -11 0 -20 3 -20 7 0
6 121 123 128 123 1 0 -2 -8 -7 -17z m2235 -86 c6 -69 4 -87 -21 -162 -15 -47
-32 -85 -37 -85 -5 0 -6 -4 -3 -10 3 -5 1 -10 -5 -10 -6 0 -9 -4 -6 -9 14 -22
-119 -179 -219 -259 -92 -74 -247 -133 -366 -140 -84 -4 -87 -4 -129 27 -24
17 -50 29 -57 26 -8 -3 -11 0 -8 6 4 6 1 10 -6 8 -27 -3 -49 1 -49 10 0 4 19
5 43 0 40 -7 76 -6 192 6 151 17 303 95 445 231 69 67 88 92 131 178 49 101
84 229 72 263 -4 13 -3 15 5 8 6 -5 14 -45 18 -88z m1241 7 c-3 -3 -13 8 -21
25 -23 43 -19 52 5 13 12 -18 19 -35 16 -38z m-3597 -52 c0 -5 -11 -19 -25
-32 -28 -27 -36 -8 -8 22 17 19 33 24 33 10z m-102 -179 c75 -6 83 -11 55 -34
-9 -8 -61 -68 -117 -134 -110 -132 -122 -144 -182 -180 -80 -49 -126 -57 -339
-63 -196 -5 -199 -5 -140 -19 33 -7 114 -16 180 -19 182 -10 296 16 386 87 21
17 43 27 49 24 6 -4 70 -24 143 -44 73 -21 198 -60 280 -86 131 -43 146 -50
133 -64 -180 -209 -269 -345 -311 -478 -9 -29 -19 -53 -21 -53 -3 0 -2 9 1 20
13 41 -19 76 -64 70 -9 -1 -12 4 -8 14 5 11 1 16 -13 16 -10 0 -33 12 -50 26
-39 33 -49 25 -20 -16 19 -27 20 -30 4 -20 -26 16 -75 94 -63 98 5 2 16 -2 24
-8 24 -20 17 1 -7 23 -32 27 -156 129 -179 146 -29 21 -24 3 35 -115 71 -144
146 -371 128 -388 -3 -4 -16 4 -29 16 -35 32 -266 173 -358 218 -69 33 -195
75 -195 65 0 -2 38 -32 84 -67 156 -117 346 -307 346 -345 0 -4 -30 23 -67 58
-38 36 -90 80 -118 99 -27 19 -51 37 -53 42 -2 4 -11 8 -20 8 -14 0 -14 -2 -3
-9 7 -5 12 -14 10 -20 -3 -7 -47 23 -99 66 -143 119 -204 162 -305 213 -172
89 -338 139 -517 155 -43 4 -78 11 -78 15 0 13 130 129 203 180 82 58 204 119
312 156 92 31 173 35 281 13 38 -7 125 -14 194 -14 118 0 125 1 125 20 0 11
18 46 40 78 22 32 54 79 70 106 53 84 105 150 123 155 9 2 31 2 47 0 17 -3 63
-7 103 -11z m-245 -16 c-10 -13 -39 -53 -65 -88 -26 -35 -57 -76 -70 -91 l-23
-27 -90 15 c-54 9 -111 13 -142 9 -29 -4 -53 -3 -53 2 0 12 127 135 168 162
48 33 76 39 190 40 l104 1 -19 -23z m528 -37 c170 -34 439 -107 439 -119 0 -4
-26 -34 -58 -66 -32 -33 -84 -95 -116 -137 -32 -43 -62 -78 -67 -78 -5 0 -62
18 -126 40 -65 23 -163 52 -218 66 -98 24 -196 53 -204 60 -2 2 14 25 35 50
21 26 46 57 54 69 45 66 115 135 136 135 12 0 69 -9 125 -20z m-1869 -108
c117 -53 313 -98 470 -109 l86 -6 -136 -69 c-76 -39 -144 -76 -153 -84 -8 -8
-21 -14 -27 -14 -6 0 -16 -9 -22 -21 -7 -11 -14 -19 -16 -16 -3 2 -18 -8 -35
-24 -17 -15 -36 -26 -45 -22 -9 3 -14 -1 -14 -12 0 -10 -5 -13 -12 -9 -7 5 -8
3 -3 -5 4 -8 -4 -24 -20 -41 l-28 -29 -56 28 c-96 49 -96 48 -99 243 -3 142
-1 173 13 194 8 13 19 24 24 24 5 0 38 -13 73 -28z m2578 -86 c356 -122 803
-332 1088 -512 55 -36 60 -44 38 -67 -34 -34 -126 -197 -126 -224 0 -4 -4 -14
-9 -22 -8 -12 -47 5 -208 86 -324 165 -678 317 -1010 431 -105 37 -194 70
-198 74 -10 10 11 44 81 135 74 94 139 153 168 153 12 -1 91 -25 176 -54z
m5370 -20 c0 -71 -42 -197 -92 -277 -81 -128 -237 -290 -348 -361 -109 -70
-180 -100 -332 -143 -33 -9 -73 -29 -93 -47 -20 -17 -38 -29 -40 -26 -2 2 -13
49 -24 104 -11 54 -27 120 -35 146 -19 61 1 56 32 -7 20 -42 36 -55 44 -37 8
20 101 52 150 52 37 0 65 7 94 24 22 13 73 35 113 51 82 31 137 72 235 172 37
39 96 100 130 136 59 61 106 141 135 230 16 47 31 39 31 -17z m-6962 5 c18 -6
60 -11 93 -13 95 -5 71 -28 -30 -28 -62 0 -161 25 -161 40 0 13 55 13 98 1z
m6718 -35 c-26 -35 -107 -106 -120 -106 -4 0 26 33 66 73 78 77 98 90 54 33z
m-7927 -252 c5 -5 -38 -133 -59 -175 -22 -42 -18 -51 18 -42 21 5 18 -1 -22
-42 -25 -27 -46 -52 -46 -56 0 -4 -7 -9 -15 -12 -11 -5 -12 -1 -4 20 9 24 8
25 -8 12 -10 -8 -65 -60 -123 -116 -58 -57 -147 -136 -199 -176 -52 -39 -96
-79 -99 -87 -4 -12 -2 -13 9 -2 7 6 25 12 39 12 25 0 26 -2 23 -42 -2 -31 1
-46 13 -55 14 -10 14 -13 -5 -22 -11 -6 -26 -11 -34 -11 -8 0 -22 -9 -32 -20
-10 -11 -24 -20 -32 -20 -7 0 -13 -4 -13 -8 0 -4 -15 -16 -32 -27 -18 -10 -50
-32 -70 -48 -33 -26 -40 -28 -54 -16 -10 8 -19 13 -21 12 -13 -10 -33 0 -33
18 0 11 -4 18 -9 14 -5 -3 -12 -1 -16 5 -9 14 21 55 60 82 19 12 35 26 35 30
0 8 -84 -36 -110 -57 -44 -36 -318 -165 -350 -165 -6 0 -10 9 -10 19 0 15 33
37 133 89 292 153 591 350 725 477 29 27 58 52 63 53 14 5 154 183 173 220 20
39 20 48 1 32 -10 -8 -29 -10 -52 -7 -21 4 -63 0 -97 -9 -80 -21 -261 -110
-378 -186 -53 -35 -122 -80 -155 -100 -103 -67 -152 -104 -282 -213 -20 -16
-57 -51 -83 -77 l-48 -48 0 38 c0 32 7 45 48 84 144 142 462 357 707 481 225
114 294 142 365 150 32 3 70 -1 79 -9z m2375 -10 c9 -8 16 -13 16 -10 0 7 268
-89 279 -99 2 -2 -38 -49 -89 -104 -108 -116 -173 -201 -197 -252 -15 -35 -18
-37 -57 -32 -73 8 -179 34 -207 50 -25 15 -26 19 -17 52 11 37 60 113 129 196
l41 50 -52 -55 c-53 -56 -144 -188 -186 -270 -24 -45 -24 -45 -18 -10 20 122
68 210 195 357 41 48 83 100 93 116 20 30 47 35 70 11z m6439 -64 c96 -14 100
-24 6 -17 -83 7 -109 14 -109 29 0 6 7 7 16 4 9 -4 49 -11 87 -16z m-8638 -7
c37 -18 42 -29 22 -54 -23 -29 -47 -31 -57 -3 -10 26 -14 74 -5 74 2 0 20 -8
40 -17z m2642 -90 c327 -129 682 -291 893 -408 l65 -36 7 -61 c19 -162 92
-281 233 -382 109 -78 279 -136 399 -136 40 0 76 -18 76 -38 0 -4 11 -46 24
-95 13 -48 23 -87 21 -87 -2 0 -14 18 -26 40 -14 24 -28 39 -36 36 -7 -3 -15
4 -18 17 -4 13 -24 34 -45 47 -30 18 -36 27 -28 37 8 10 2 16 -25 28 -38 16
-70 20 -52 7 55 -40 39 -230 -20 -248 -11 -4 -26 -15 -32 -24 -7 -10 -27 -21
-45 -24 -18 -3 -44 -9 -58 -12 -42 -9 -204 -21 -222 -16 -12 3 -18 -1 -18 -12
0 -9 -5 -16 -11 -16 -24 0 -69 -42 -69 -64 0 -18 -7 -25 -30 -29 -26 -6 -31
-12 -36 -47 -10 -61 -34 -69 -91 -28 -25 18 -74 60 -108 93 -145 141 -367 337
-373 330 -5 -4 -11 0 -62 45 -19 16 -38 30 -42 30 -3 0 -14 7 -22 16 -20 19
-179 98 -263 130 -78 30 -236 74 -262 74 -12 0 -21 4 -21 9 0 19 78 74 166
117 135 66 294 104 469 112 124 5 135 7 100 16 -22 6 -50 17 -62 24 -12 6 -35
12 -51 12 -16 0 -39 8 -51 19 l-21 18 29 6 c24 5 28 10 24 27 -5 18 -13 20
-84 20 -44 0 -79 -4 -79 -8 0 -17 -155 -32 -258 -25 -76 4 -106 3 -111 -6 -4
-6 -28 -13 -52 -14 -24 -1 -49 -7 -55 -13 -16 -14 -84 -5 -84 11 0 8 9 16 19
20 16 5 18 11 11 28 -4 12 -13 21 -19 20 -12 -3 19 80 57 152 15 28 80 105
145 172 64 66 117 126 117 132 0 16 12 14 87 -16z m4273 -71 c38 -99 52 -189
47 -287 -5 -96 -23 -157 -78 -269 -55 -111 -60 -103 -58 83 1 127 4 159 14
151 19 -15 32 7 50 81 25 106 16 235 -22 314 l-14 30 20 -23 c11 -13 30 -49
41 -80z m-7290 48 c0 -22 -111 -136 -215 -221 -33 -27 -67 -55 -75 -62 -30
-25 -90 -67 -96 -67 -4 0 0 8 7 17 10 12 0 9 -31 -9 -25 -14 -47 -34 -48 -43
-3 -12 0 -15 10 -10 7 3 0 -5 -16 -19 -16 -13 -59 -39 -95 -56 -36 -18 -79
-43 -96 -56 -46 -35 -258 -134 -301 -141 l-38 -6 24 39 c13 21 29 51 36 65 19
35 145 153 310 288 16 13 40 33 54 45 l25 21 -19 -22 c-43 -51 12 -16 91 58
23 21 51 39 63 39 12 0 47 15 79 34 64 37 205 102 236 108 47 9 95 8 95 -2z
m684 -36 c112 -19 185 -43 311 -104 361 -174 625 -466 768 -850 43 -116 66
-232 76 -393 9 -129 2 -160 -37 -174 -26 -10 -222 -142 -262 -177 l-35 -30 -3
85 c-2 46 0 94 3 106 6 26 25 31 25 8 0 -8 5 -15 10 -15 6 0 10 7 10 15 0 12
13 15 60 15 53 0 60 2 60 20 0 13 7 20 20 20 12 0 20 -7 20 -16 0 -13 7 -15
36 -9 27 5 34 3 29 -6 -5 -7 -3 -10 6 -7 20 6 22 70 9 213 -13 153 -29 245
-42 245 -6 0 -8 -26 -4 -67 3 -38 5 -77 6 -88 0 -11 6 -23 13 -27 6 -4 8 -10
5 -14 -11 -10 -38 22 -38 45 0 11 -9 25 -20 31 -18 9 -20 8 -20 -15 0 -14 5
-25 10 -25 6 0 10 -9 10 -20 0 -17 -7 -20 -40 -20 -33 0 -40 3 -40 20 0 17 -7
20 -40 20 -39 0 -40 -1 -40 -36 0 -26 -8 -46 -29 -69 -37 -42 -45 -103 -36
-283 l6 -133 -32 -30 c-30 -28 -72 -38 -83 -21 -3 5 6 35 19 68 31 75 32 156
5 290 -47 230 -127 385 -297 576 -227 254 -519 407 -865 453 -26 3 -84 1 -130
-5 -66 -9 -97 -20 -152 -51 -38 -22 -73 -36 -78 -31 -4 4 -1 28 7 53 18 52
104 138 209 209 102 69 106 72 74 60 -16 -5 -28 -7 -28 -4 0 16 33 64 67 95
99 95 226 114 477 73z m3613 -114 l83 -54 -47 -85 c-87 -160 -102 -202 -103
-292 0 -85 49 -178 120 -225 44 -29 174 -84 199 -84 10 0 26 -7 37 -15 17 -15
12 -16 -62 -13 -71 3 -90 8 -165 45 -65 32 -102 60 -162 120 -96 97 -114 126
-133 216 -17 83 -8 173 26 253 26 59 110 196 119 192 3 -2 43 -28 88 -58z
m4315 17 c177 -56 215 -105 140 -176 -28 -27 -60 -43 -127 -64 -79 -24 -109
-28 -250 -31 -88 -2 -227 -9 -308 -16 -81 -7 -151 -10 -154 -6 -18 17 18 29
166 56 29 5 70 18 90 30 20 11 65 34 101 51 36 18 72 36 80 40 32 18 83 39 95
39 22 0 105 -39 105 -49 0 -25 -100 -67 -228 -96 -40 -9 -70 -20 -68 -23 5 -9
126 -7 146 2 8 3 45 15 82 25 114 33 160 82 125 135 -19 28 -70 62 -109 71
-28 7 -39 25 -15 25 8 0 7 4 -3 10 -31 20 27 10 132 -23z m313 14 c3 -5 1 -12
-5 -16 -5 -3 -10 1 -10 9 0 18 6 21 15 7z m-51 -67 c9 -24 2 -26 -12 -4 -7 11
-8 20 -3 20 5 0 12 -7 15 -16z m-4304 -176 c131 -105 336 -308 490 -483 57
-66 128 -146 158 -179 50 -55 178 -236 167 -236 -3 0 -25 28 -50 61 -25 34
-69 88 -98 121 -218 249 -633 638 -521 488 20 -26 -6 -120 -32 -120 -8 0 -14
-4 -14 -10 0 -5 7 -10 15 -10 21 0 19 -27 -5 -60 -11 -15 -18 -29 -15 -31 9
-9 -41 -2 -59 8 -17 10 -111 90 -244 209 l-45 41 21 44 c56 117 92 203 92 219
0 17 8 30 19 30 4 0 58 -41 121 -92z m4255 -265 c-14 -99 -97 -141 -400 -202
-93 -18 -150 -25 -435 -51 -58 -5 -109 -10 -115 -11 -5 0 -86 6 -180 15 -275
26 -268 24 -238 93 33 72 93 229 93 241 0 6 -5 12 -12 14 -29 10 227 28 420
30 117 1 216 6 219 11 3 4 24 6 47 2 26 -4 36 -3 28 3 -17 11 38 23 81 17 15
-2 27 1 27 7 0 7 24 9 73 4 112 -10 275 40 367 113 l25 20 3 -132 c2 -73 0
-151 -3 -174z m-1681 180 c-33 -152 -37 -164 -90 -259 -48 -84 -136 -194 -148
-183 -7 6 43 180 69 242 8 21 19 36 23 33 8 -5 39 50 72 129 25 58 78 145 90
145 4 0 -3 -48 -16 -107z m-5563 -14 c13 -26 7 -24 -22 7 -17 19 -19 23 -6 18
10 -3 22 -15 28 -25z m1009 -14 c0 -8 -4 -15 -10 -15 -5 0 -7 7 -4 15 4 8 8
15 10 15 2 0 4 -7 4 -15z m244 -36 c51 -2 51 -2 -18 -11 -75 -10 -141 -4 -130
14 4 6 24 8 52 4 25 -3 68 -7 96 -7z m-2647 -33 c-5 -11 9 -16 61 -21 76 -8
200 -37 256 -60 73 -31 212 -124 273 -184 43 -42 73 -83 97 -133 51 -106 80
-255 67 -338 l-7 -45 -18 35 c-10 19 -22 37 -25 40 -3 3 -22 30 -42 60 -49 74
-147 190 -160 190 -11 0 -5 -28 16 -70 31 -62 64 -263 47 -288 -7 -11 -11 -7
-16 12 -7 30 -31 35 -39 7 -2 -11 -2 -39 0 -64 3 -27 1 -47 -6 -51 -6 -4 -11
-2 -11 5 0 7 -3 9 -7 6 -3 -4 -16 0 -29 8 -19 12 -23 12 -28 0 -8 -22 -26 -18
-26 5 0 22 -1 23 -23 14 -8 -3 -12 -14 -10 -27 2 -12 0 -33 -6 -47 l-10 -25 0
25 c-1 32 -18 50 -46 50 -17 0 -25 9 -33 39 -7 21 -12 50 -12 63 0 42 -12 88
-21 82 -5 -3 -9 4 -9 16 0 11 -7 37 -16 58 l-16 37 -18 -69 c-10 -37 -24 -73
-30 -80 -9 -8 -11 -7 -8 6 1 9 -1 17 -7 17 -5 0 -12 8 -16 18 -7 16 -8 15 -8
-4 -1 -32 -21 -29 -21 3 0 24 -34 207 -46 247 -6 20 -31 17 -26 -2 1 -7 -2
-10 -6 -7 -5 3 -22 -9 -36 -27 -27 -32 -27 -32 -21 -5 6 22 4 26 -12 22 -12
-3 -24 5 -37 23 -33 49 -145 136 -240 185 -86 45 -89 47 -54 48 39 0 68 8 68
19 0 3 -14 12 -30 20 -31 13 -117 9 -187 -9 -18 -5 -33 -7 -33 -5 0 4 208 105
216 105 1 0 46 20 99 45 106 50 148 62 214 64 33 1 42 -2 38 -13z m6743 -107
c0 -29 -94 -203 -150 -280 -28 -37 -74 -83 -103 -102 -57 -39 -193 -94 -205
-82 -4 3 5 28 19 53 18 34 41 56 83 81 74 44 159 126 229 221 85 114 108 140
118 134 5 -3 9 -14 9 -25z m-1232 -126 c28 -25 47 -32 78 -33 22 0 43 -2 46
-5 3 -4 -5 -47 -18 -98 -52 -200 -69 -462 -44 -654 16 -116 82 -327 140 -444
28 -57 58 -120 66 -139 13 -33 10 -31 -43 25 -180 190 -307 431 -357 676 -22
107 -26 153 -26 302 0 213 13 309 53 405 l31 72 18 -37 c10 -21 35 -52 56 -70z
m1488 44 c-3 -23 -5 -44 -5 -46 -1 -2 -8 2 -16 9 -18 15 -19 43 -4 71 16 31
29 12 25 -34z m-7852 37 c39 -15 10 -54 -79 -109 -53 -33 -129 -92 -152 -119
-22 -24 -61 -38 -48 -16 8 12 3 13 -29 0 -22 -8 -26 -7 -26 9 0 13 10 21 35
25 20 4 43 18 55 33 l21 27 -38 11 -38 12 69 33 c37 18 80 34 95 35 39 4 81
26 82 44 0 12 2 11 8 -3 7 -19 8 -19 13 2 7 24 9 25 32 16z m7886 -94 c0 -5
-4 -10 -9 -10 -6 0 -13 5 -16 10 -3 6 1 10 9 10 9 0 16 -4 16 -10z m1604 -42
c3 -13 6 -79 6 -147 0 -215 -24 -238 -337 -316 -127 -31 -143 -31 -73 1 185
87 238 115 260 139 23 24 25 35 27 131 l2 104 -32 0 c-34 -1 -115 -18 -207
-44 -30 -9 -82 -20 -115 -26 -123 -22 -114 -17 -103 -57 5 -20 7 -61 4 -92 -3
-31 -6 -63 -6 -71 -1 -8 -6 -30 -12 -47 -14 -48 -3 -73 35 -74 84 -4 -139 -28
-308 -33 -273 -10 -493 16 -685 79 -84 28 -96 34 -60 30 25 -2 55 -7 67 -10
21 -7 22 -5 20 77 -1 45 1 122 3 170 4 73 7 87 20 84 8 -3 65 -8 125 -11 61
-4 133 -8 160 -10 139 -11 531 -4 659 10 182 20 376 68 464 115 50 26 78 25
86 -2z m-9121 1 c36 -10 107 -62 107 -79 0 -5 -33 -26 -72 -46 -54 -28 -100
-64 -175 -139 -90 -89 -107 -112 -147 -195 -48 -101 -66 -178 -66 -289 l0 -64
-24 22 c-60 57 -95 218 -76 349 11 75 47 181 78 232 9 14 40 55 70 92 87 109
191 149 305 117z m4979 -28 c10 -9 18 -19 18 -24 0 -11 -48 25 -54 41 -6 14 6
8 36 -17z m-5316 -13 c-48 -60 -107 -149 -122 -183 -33 -81 -57 -211 -58 -320
0 -93 4 -124 28 -203 15 -51 25 -96 21 -100 -10 -10 -92 83 -117 132 -48 93
-67 241 -49 370 19 134 75 228 168 283 51 29 109 52 137 53 17 0 16 -4 -8 -32z
m6697 -17 c101 -47 129 -100 109 -211 -91 -504 -86 -792 18 -1102 23 -66 39
-123 36 -125 -10 -10 -52 29 -108 99 -66 83 -194 321 -226 418 -55 167 -66
244 -66 460 -1 278 23 408 88 478 26 29 54 26 149 -17z m-3179 -30 c65 -23
141 -53 168 -67 249 -126 515 -357 693 -602 101 -139 258 -432 241 -449 -3 -3
-23 -7 -45 -9 -153 -13 -265 -47 -438 -135 l-132 -67 -12 37 c-46 143 -213
379 -372 526 -219 202 -481 338 -679 353 -77 5 -158 -21 -199 -64 -33 -36 -49
-31 -49 15 0 22 4 50 9 63 20 54 91 121 196 186 94 59 109 72 120 106 16 47
74 108 129 137 36 18 54 20 146 16 91 -4 121 -10 224 -46z m1881 -31 c27 -30
12 -34 -15 -5 -13 14 -19 25 -13 25 5 0 18 -9 28 -20z m-4803 -42 c94 -28 143
-153 92 -234 -12 -20 -19 -21 -102 -16 -75 4 -95 1 -136 -17 -113 -49 -277
-199 -356 -325 -19 -30 -38 -55 -42 -56 -17 -1 -7 113 17 194 42 144 105 248
211 346 64 60 109 86 175 104 68 18 92 19 141 4z m-926 -15 c-28 -103 -34
-484 -8 -516 9 -11 10 -17 2 -22 -6 -4 -15 -17 -20 -29 -5 -12 -9 98 -9 276
-1 297 0 304 32 307 5 1 6 -7 3 -16z m5789 -3 c10 -11 13 -20 7 -20 -6 0 -16
9 -22 20 -6 11 -9 20 -7 20 2 0 12 -9 22 -20z m2125 -5 c0 -57 25 -120 63
-156 44 -44 46 -52 10 -43 -60 14 -104 45 -120 81 -25 61 -3 141 40 143 4 0 7
-11 7 -25z m-709 -146 c-6 -16 -10 -18 -10 -7 -1 22 12 55 16 42 2 -6 -1 -22
-6 -35z m-1472 -124 c0 -5 -6 1 -14 15 -8 14 -14 30 -14 35 0 6 6 -1 14 -15 8
-14 14 -29 14 -35z m1577 -61 c61 -131 152 -233 254 -284 l45 -23 -29 -10
c-67 -23 -265 33 -350 98 -54 41 -70 77 -63 145 8 76 16 93 38 87 11 -3 17 -1
14 4 -3 5 -1 18 6 30 8 15 8 19 0 15 -14 -9 -14 -4 0 31 l11 28 20 -25 c12
-14 36 -57 54 -96z m574 31 c0 -8 8 -11 18 -9 9 3 27 -5 40 -16 18 -17 20 -25
12 -36 -7 -7 -14 -67 -17 -134 l-6 -121 45 -42 c32 -29 64 -47 105 -59 62 -19
96 -23 77 -10 -6 4 -14 30 -18 57 -5 46 -2 78 20 167 11 48 -2 74 -46 92 -22
9 -40 20 -40 26 0 13 -11 14 201 -14 315 -42 744 -50 1019 -20 220 24 325 57
427 132 58 43 63 32 63 -138 0 -171 -8 -202 -64 -245 -43 -33 -217 -90 -341
-111 -49 -9 -93 -18 -96 -19 -3 -2 -100 -14 -215 -26 -175 -18 -243 -20 -414
-15 -247 8 -363 27 -562 90 -221 70 -238 90 -246 286 -6 149 2 208 24 190 8
-7 14 -18 14 -25z m2213 28 c-7 -2 -19 -2 -25 0 -7 3 -2 5 12 5 14 0 19 -2 13
-5z m-7361 -110 c-5 -15 -62 -18 -62 -3 0 6 -9 10 -20 10 -16 0 -20 7 -20 30
0 28 3 30 34 30 19 0 38 5 42 12 9 14 33 -60 26 -79z m-1829 32 c36 -5 59 -20
130 -85 202 -184 425 -522 457 -690 33 -172 -22 -234 -205 -234 -78 1 -100 5
-165 32 -129 55 -257 142 -243 165 3 6 1 7 -5 3 -10 -6 -32 11 -194 153 -173
151 -304 291 -274 291 9 0 16 -4 16 -10 0 -15 61 -80 73 -77 7 1 11 -6 9 -17
-3 -14 1 -17 13 -12 9 3 13 2 10 -3 -3 -5 0 -13 6 -17 7 -4 9 -3 5 4 -3 6 -2
13 4 17 13 8 13 115 0 115 -6 0 -10 27 -10 60 0 33 4 60 10 60 6 0 10 8 10 18
-1 13 -6 11 -25 -11 -22 -25 -25 -26 -25 -9 0 11 7 22 15 26 8 3 15 12 15 19
0 15 29 45 45 46 6 1 10 6 10 11 0 16 124 129 163 149 28 14 44 16 81 9 25 -5
59 -11 74 -13z m2477 -124 c133 -47 330 -171 385 -241 36 -46 83 -90 97 -90
10 0 9 3 -2 10 -8 5 -10 10 -4 10 19 0 43 -46 37 -69 -5 -18 37 -137 59 -167
12 -16 2 -70 -22 -119 -20 -42 -40 -59 -40 -35 0 6 -11 3 -25 -6 -14 -9 -25
-23 -25 -30 0 -8 -10 -14 -25 -14 -20 0 -25 -5 -25 -25 0 -19 -5 -25 -23 -25
-12 0 -32 -7 -44 -15 -12 -8 -28 -12 -37 -9 -9 3 -16 2 -16 -4 0 -6 5 -12 10
-14 6 -1 -14 -4 -42 -4 -56 -1 -101 -8 -117 -18 -5 -4 -34 1 -64 11 -44 13
-53 20 -49 35 2 10 -1 18 -7 18 -6 0 -11 9 -11 19 0 11 -10 23 -22 27 -34 12
-42 11 -55 -6 -6 -8 -15 -12 -19 -7 -4 4 -2 7 4 7 7 0 12 5 12 10 0 6 -16 10
-35 10 -19 0 -35 5 -35 11 0 5 -4 8 -8 5 -5 -3 -24 14 -43 37 -61 74 -114 121
-164 147 l-50 24 64 11 c39 6 66 16 69 24 4 12 -11 13 -86 7 -84 -6 -93 -5
-112 14 l-20 20 -78 -26 c-42 -15 -89 -33 -104 -40 -41 -21 -44 -17 -12 17 53
58 215 159 294 186 30 10 57 20 60 23 3 3 31 18 63 34 60 29 74 42 32 32 -51
-13 -191 -36 -215 -35 -22 0 -23 1 -6 8 12 5 16 10 9 14 -6 4 -24 2 -39 -4
-16 -5 -67 -17 -114 -25 -47 -8 -89 -20 -95 -26 -7 -7 0 -9 25 -5 87 14 135
18 120 9 -24 -15 -108 -30 -206 -38 l-89 -6 40 31 c140 110 346 225 523 292
67 26 86 29 152 25 41 -3 100 -14 130 -25z m-3282 -174 c70 -72 162 -113 162
-72 0 8 5 15 10 15 14 0 12 -12 -5 -37 -12 -18 -20 -20 -50 -13 -20 4 -59 24
-88 44 -29 20 -58 36 -65 36 -6 0 -12 5 -12 10 0 12 -49 3 -65 -11 -33 -31
-33 12 1 48 19 20 24 35 21 57 l-4 30 24 -30 c13 -16 45 -51 71 -77z m2178
-15 c-6 -81 -15 -127 -43 -206 -19 -55 -36 -103 -38 -105 -5 -4 -22 65 -30
121 -6 38 -4 49 13 66 11 11 34 70 52 131 19 65 37 108 43 104 6 -4 7 -44 3
-111z m7497 -174 c5 -78 1 -185 -9 -235 -13 -66 -145 -145 -309 -183 -123 -30
-135 -21 -30 23 130 54 174 78 201 110 22 27 24 36 24 147 l0 118 -42 -13
c-24 -7 -86 -27 -138 -43 -52 -17 -148 -40 -212 -52 -110 -21 -117 -24 -123
-49 -4 -14 -13 -34 -22 -43 -11 -12 -16 -49 -19 -137 l-5 -121 26 0 c16 0 24
-4 20 -11 -10 -16 -60 -1 -144 43 l-76 40 -125 -5 c-88 -4 -163 -15 -254 -36
-198 -47 -257 -42 -486 40 -128 47 -183 87 -200 149 -11 39 -13 198 -4 277 l7
52 41 -28 c62 -42 138 -67 276 -89 221 -36 367 -44 711 -39 291 4 338 7 465
30 169 31 287 67 346 107 68 47 74 43 81 -52z m-7683 13 c0 -159 -84 -338
-217 -462 -49 -46 -110 -85 -119 -76 -9 9 68 126 127 193 95 108 123 164 174
347 18 67 35 66 35 -2z m-2035 8 c11 -17 -1 -21 -15 -4 -8 9 -8 15 -2 15 6 0
14 -5 17 -11z m-41 -70 c30 -24 91 -108 79 -110 -4 -1 -12 -1 -17 0 -4 1 -5
-15 -1 -36 6 -34 5 -36 -8 -19 -9 13 -20 17 -32 12 -16 -6 -16 -4 -3 16 17 26
9 40 -31 53 -20 6 -21 4 -16 -22 6 -25 5 -26 -6 -8 -7 11 -14 45 -16 77 -5 66
5 73 51 37z m6626 -58 c0 -10 -28 -47 -62 -83 -124 -128 -293 -234 -528 -330
l-165 -67 -27 32 c-22 26 -24 33 -11 35 9 2 26 -2 39 -9 20 -10 29 -10 52 2
15 8 29 17 32 20 3 3 16 12 29 19 19 10 25 10 33 -1 8 -11 11 -11 15 -1 12 29
36 43 64 37 18 -4 29 -2 29 4 0 6 7 11 15 11 8 0 24 9 35 20 12 12 25 18 30
15 17 -10 98 32 105 54 7 23 40 45 55 36 5 -3 14 4 20 15 6 11 17 20 25 20 8
0 18 6 22 14 4 7 17 18 29 24 11 6 45 36 75 66 30 31 60 56 67 56 9 0 11 7 7
21 -5 15 -4 19 4 15 6 -4 11 -15 11 -25z m-1360 -53 c0 -4 -6 -8 -14 -8 -8 0
-21 -3 -30 -6 -9 -3 -16 -1 -16 4 0 10 20 18 48 18 6 1 12 -3 12 -8z m-4782
-65 c-19 -21 -40 -53 -47 -72 -11 -33 -15 -191 -4 -161 10 29 33 39 64 28 16
-5 29 -14 29 -19 0 -5 6 -9 14 -9 8 0 19 -13 25 -30 7 -20 17 -30 31 -30 26 0
68 -21 140 -70 30 -21 65 -41 78 -45 12 -3 26 -14 31 -23 5 -10 34 -28 63 -42
55 -24 88 -62 144 -159 17 -31 26 -36 62 -39 24 -2 42 1 42 7 0 10 75 -19 90
-35 4 -5 11 -36 15 -68 l7 -59 -54 8 c-29 4 -91 9 -138 11 -157 7 -193 18
-323 101 -146 94 -212 150 -276 236 -90 120 -123 295 -74 392 17 34 92 115
107 115 6 0 -6 -17 -26 -37z m2492 -33 c51 -26 80 -58 80 -88 0 -19 -10 -28
-52 -45 -80 -32 -292 -142 -345 -179 -26 -17 -113 -90 -193 -162 -165 -147
-283 -227 -288 -195 -9 52 118 275 231 408 183 215 432 330 567 261z m-2920
-91 c0 -98 -23 -231 -46 -263 -19 -27 -17 -16 7 74 15 55 20 104 20 183 0 67
3 106 9 102 6 -3 10 -47 10 -96z m7490 37 c120 -26 164 -55 176 -114 14 -71
-89 -205 -220 -285 -27 -17 -44 -33 -38 -35 6 -2 25 6 41 17 35 26 41 26 41 4
0 -10 11 -42 25 -71 14 -30 25 -64 25 -76 0 -25 -24 -50 -56 -60 -24 -7 -23
-8 -55 83 -18 52 -18 55 -2 74 17 19 17 19 -7 12 -14 -4 -43 -20 -65 -35 -22
-14 -61 -38 -87 -53 -82 -47 -428 -173 -598 -217 -49 -12 -209 -26 -199 -16 6
6 159 60 229 80 68 20 220 76 260 96 19 10 66 29 104 41 37 13 71 29 73 36 3
7 11 13 19 13 8 0 14 2 14 4 0 2 3 12 6 21 6 14 4 15 -12 6 -20 -12 -191 -76
-397 -148 -126 -44 -133 -45 -325 -57 -109 -7 -201 -9 -207 -4 -5 4 -21 8 -36
8 -15 0 -35 3 -44 6 -25 10 2 24 47 24 90 0 359 58 443 95 17 7 57 21 90 30
95 27 233 83 260 107 14 12 25 30 25 40 0 23 -3 23 -48 -6 -20 -13 -111 -49
-202 -79 -231 -77 -257 -84 -330 -91 -36 -4 -75 -10 -87 -13 -31 -7 -29 10 7
50 17 19 30 40 30 46 0 6 13 11 29 11 43 0 84 18 78 34 -7 17 1 27 42 55 27
20 35 21 42 10 6 -9 9 -10 9 -2 0 7 16 15 36 19 19 3 41 15 47 25 7 11 18 19
25 19 8 0 12 6 10 12 -7 19 39 38 93 38 26 0 50 4 53 9 4 5 23 12 44 16 55 9
66 18 53 43 -14 27 4 24 46 -6 47 -33 111 -59 166 -67 55 -8 56 -5 32 85 -8
30 -15 56 -15 58 0 1 9 -2 19 -8 11 -5 30 -10 42 -10 61 0 154 -24 175 -45 41
-41 13 -87 -103 -173 -35 -25 -63 -50 -63 -55 0 -18 125 60 181 113 95 90 93
146 -6 194 -47 23 -77 30 -147 34 -83 4 -88 4 -96 -17 -7 -19 -9 -17 -19 19
-12 48 -14 46 72 59 93 13 184 12 255 -3z m-5789 -100 c-30 -81 -45 -99 -112
-141 -62 -38 -170 -65 -206 -51 -16 7 -14 10 12 23 42 21 101 80 116 114 6 16
15 26 20 23 19 -11 80 19 125 63 59 57 74 47 45 -31z m-1781 8 c0 -8 -4 -12
-10 -9 -5 3 -10 10 -10 16 0 5 5 9 10 9 6 0 10 -7 10 -16z m3381 -8 c0 -6 2
-19 4 -29 2 -13 -2 -17 -13 -15 -9 2 -17 8 -17 13 0 6 -3 15 -7 21 -9 14 -3
21 17 21 8 0 15 -5 16 -11z m489 10 c0 -3 -4 -8 -10 -11 -5 -3 -10 -1 -10 4 0
6 5 11 10 11 6 0 10 -2 10 -4z m5854 -32 c3 -9 6 -55 6 -104 0 -71 -3 -89 -16
-94 -22 -8 -64 -7 -62 2 6 20 -14 82 -27 82 -7 0 -60 -11 -117 -25 -110 -27
-165 -33 -138 -15 8 6 33 15 55 21 95 25 172 61 220 104 54 48 70 54 79 29z
m-9737 -19 c-4 -34 -17 -44 -17 -13 0 22 7 38 17 38 2 0 2 -11 0 -25z m7916 9
c17 -18 162 -69 226 -81 13 -2 32 -8 42 -13 10 -6 28 -10 40 -10 33 0 13 -14
-53 -38 -55 -19 -64 -18 -59 11 0 4 -9 7 -20 7 -12 0 -35 15 -53 34 -27 29
-36 33 -76 31 l-45 -3 -3 -43 c-2 -23 4 -62 13 -86 19 -48 14 -69 -6 -31 -8
12 -14 61 -16 107 -1 46 -5 86 -8 89 -3 3 -5 11 -5 19 0 14 12 17 23 7z
m-4663 -17 c49 -24 73 -107 50 -174 -13 -35 -17 -37 -165 -88 -163 -56 -245
-101 -505 -275 -196 -131 -309 -200 -327 -200 -32 0 139 275 250 402 114 129
322 271 482 329 59 21 178 25 215 6z m-2883 -19 c-3 -8 -6 -5 -6 6 -1 11 2 17
5 13 3 -3 4 -12 1 -19z m488 -18 c3 -5 0 -10 -7 -10 -7 0 -31 -3 -53 -6 -27
-5 -37 -3 -30 4 19 19 80 28 90 12z m2555 -10 c0 -5 -2 -10 -4 -10 -3 0 -8 5
-11 10 -3 6 -1 10 4 10 6 0 11 -4 11 -10z m4389 -43 c-2 -18 1 -39 5 -46 6
-10 5 -12 -2 -7 -7 4 -12 0 -13 -11 -1 -16 -2 -16 -6 -1 -4 15 -10 13 -45 -12
-70 -51 -73 -33 -6 40 34 38 64 69 66 70 2 0 2 -15 1 -33z m25 -163 c1 -40 -3
-58 -13 -62 -10 -3 -12 4 -6 37 7 45 -3 53 -24 20 -13 -22 -13 -22 -32 7 -28
42 -24 54 16 54 21 0 35 5 35 12 0 9 3 9 11 1 7 -7 12 -37 13 -69z m911 36
c11 -4 29 -17 39 -29 17 -19 18 -26 7 -77 -28 -142 -172 -342 -371 -517 -167
-146 -550 -391 -582 -371 -18 12 68 104 97 104 19 0 151 63 227 107 37 22 113
80 167 129 107 95 154 167 167 251 6 39 4 42 -24 57 -17 9 -44 16 -59 16 l-28
0 41 38 c43 39 84 108 84 141 0 13 -12 27 -31 36 -30 16 -57 14 -136 -10 -27
-9 -31 11 -9 53 32 63 307 111 411 72z m-8530 0 c-11 -5 -29 -8 -40 -8 -16 0
-15 2 5 8 34 11 60 11 35 0z m-65 -20 c0 -5 -8 -10 -17 -10 -15 0 -16 2 -3 10
19 12 20 12 20 0z m2064 -62 c-10 -18 -17 -36 -16 -40 1 -5 -3 -8 -10 -8 -6 0
-9 -3 -5 -6 3 -4 0 -22 -8 -40 -7 -18 -17 -53 -20 -78 -6 -40 -4 -48 19 -69
15 -14 47 -30 71 -36 34 -8 45 -16 45 -30 0 -27 -59 -151 -71 -151 -15 0 -148
80 -157 94 -4 6 -48 46 -97 88 -101 84 -205 192 -205 212 0 12 42 29 100 40
14 2 52 14 84 25 69 24 129 27 146 7 18 -22 71 -13 105 18 35 32 43 21 19 -26z
m-2097 8 c-4 -9 -13 -16 -22 -16 -18 0 -19 4 -3 30 14 22 34 10 25 -14z m298
4 c3 -5 1 -10 -4 -10 -6 0 -11 5 -11 10 0 6 2 10 4 10 3 0 8 -4 11 -10z m1170
-48 c41 3 78 2 82 -1 5 -3 31 -34 58 -69 32 -42 89 -93 165 -149 135 -102 195
-158 144 -139 -14 5 -15 4 -4 -9 7 -9 15 -13 17 -11 3 3 11 -1 18 -7 14 -13 9
-40 -6 -31 -5 3 -14 2 -20 -1 -14 -9 10 -21 149 -75 61 -24 112 -48 112 -53 0
-5 -6 -7 -14 -4 -8 3 -32 9 -53 12 -242 41 -665 341 -732 519 -24 64 -27 99
-5 47 l15 -34 74 5z m-1519 39 c-3 -5 -17 -11 -32 -14 -29 -5 -20 9 11 16 11
3 21 5 23 6 2 0 1 -3 -2 -8z m8224 -8 c0 -10 -14 -38 -30 -63 -28 -41 -28 -45
-11 -48 10 -2 46 8 80 22 33 14 74 26 91 26 54 0 47 -25 -27 -98 -37 -37 -78
-81 -90 -98 l-23 -31 50 -7 c75 -10 80 -14 80 -56 0 -46 -46 -108 -141 -191
-80 -70 -121 -93 -284 -164 -71 -31 -172 -79 -223 -107 -52 -27 -96 -48 -98
-45 -2 2 -7 37 -10 78 l-6 74 62 120 c34 66 75 141 91 166 16 25 29 51 29 57
0 20 -45 13 -81 -11 -26 -18 -33 -29 -31 -50 2 -16 -15 -57 -48 -113 -27 -49
-50 -92 -50 -98 0 -5 -13 9 -30 32 -16 22 -43 51 -60 63 -16 13 -30 26 -30 30
0 15 55 72 104 108 83 61 137 88 201 101 69 14 102 39 111 86 7 40 33 64 70
67 26 2 29 -2 32 -30 4 -39 20 -42 52 -8 13 14 31 25 40 25 30 0 64 36 94 98
25 52 51 79 79 81 4 1 7 -7 7 -16z m-7712 -15 c11 -13 46 -43 77 -68 32 -25
77 -64 102 -87 25 -23 60 -47 77 -53 18 -6 42 -23 53 -39 16 -20 40 -33 95
-49 182 -55 247 -77 308 -105 127 -58 73 -47 -405 83 -121 33 -180 38 -188 16
-4 -10 8 -17 41 -25 129 -31 307 -96 338 -123 30 -26 41 -30 105 -31 81 -2 97
-16 47 -40 -58 -27 -148 -39 -340 -44 -203 -5 -279 -13 -278 -28 0 -5 11 -9
23 -9 12 1 69 -4 127 -11 74 -8 104 -15 102 -24 -6 -29 250 13 422 70 66 22
125 38 130 36 12 -4 -67 -57 -84 -57 -5 0 -18 -8 -28 -18 -31 -31 -188 -71
-354 -88 -147 -16 -156 -18 -155 -38 1 -12 -2 -61 -6 -109 -8 -78 -7 -91 9
-108 17 -18 16 -19 -22 -19 -120 0 -426 34 -544 61 l-85 20 3 114 c3 119 -5
155 -36 155 -13 0 -14 -2 -4 -8 14 -10 7 -87 -11 -109 -15 -20 -37 -15 -46 8
-11 31 9 109 28 110 9 0 -8 11 -36 25 l-53 24 0 56 c0 50 2 55 18 49 68 -30
141 -47 227 -55 128 -12 168 -12 161 -1 -6 8 -80 27 -221 55 -38 8 -92 24
-120 36 -49 22 -49 22 -25 32 14 6 32 13 40 18 45 22 145 42 245 49 95 6 119
11 157 34 48 28 61 47 52 72 -8 21 13 19 25 -2 7 -13 5 -21 -7 -30 -15 -10
-12 -11 16 -8 19 2 32 0 32 -7 0 -6 3 -9 6 -6 3 4 19 2 35 -2 16 -5 29 -5 29
-1 0 5 -39 44 -86 86 -47 43 -103 106 -126 139 l-40 61 42 -45 c24 -25 54 -57
67 -72 24 -28 63 -38 63 -17 0 6 -6 9 -12 7 -18 -6 -69 67 -75 108 -5 33 -5
34 29 34 23 0 42 -8 56 -22z m2735 5 l39 -6 -7 -71 c-10 -107 -22 -149 -46
-169 -12 -9 -67 -31 -123 -48 -55 -17 -182 -57 -281 -89 -182 -58 -333 -94
-438 -103 -88 -8 -83 -4 163 164 228 157 390 250 509 296 88 33 118 37 184 26z
m4792 -73 c-3 -5 -11 -10 -16 -10 -6 0 -7 5 -4 10 3 6 11 10 16 10 6 0 7 -4 4
-10z m-1695 -30 c0 -5 -6 -10 -14 -10 -8 0 -18 5 -21 10 -3 6 3 10 14 10 12 0
21 -4 21 -10z m3386 -91 c3 -6 -14 -32 -40 -58 -51 -52 -55 -61 -26 -61 10 0
35 -8 55 -17 66 -31 59 -93 -17 -167 -31 -29 -79 -61 -125 -82 l-75 -34 21
-34 c30 -48 26 -81 -14 -136 -48 -66 -126 -116 -241 -156 -78 -27 -115 -34
-174 -34 l-74 0 -66 -69 c-73 -78 -94 -91 -131 -84 -18 3 -35 -3 -57 -22 -61
-51 -31 -10 55 77 l87 87 -28 11 c-35 13 -47 6 -126 -74 -49 -50 -72 -66 -92
-66 -37 0 -35 13 7 41 20 13 52 49 73 79 20 30 40 57 45 58 4 2 7 10 7 17 0 8
10 15 23 17 12 2 26 13 32 25 10 25 38 41 29 18 -8 -20 46 -28 158 -23 83 3
102 7 170 40 94 44 128 76 128 117 0 16 -4 33 -10 36 -5 3 -64 11 -130 17
-125 12 -143 21 -96 51 21 14 36 38 85 134 9 18 22 32 28 33 16 0 27 43 19 74
-7 30 -2 34 86 56 58 15 78 27 122 68 52 50 109 73 128 54 7 -7 -6 -24 -36
-52 -56 -52 -58 -65 -10 -57 27 5 54 23 99 67 60 57 96 73 111 49z m-9427 -30
c44 -16 41 -39 -6 -39 -66 0 -247 -34 -356 -66 -16 -5 -18 0 -15 33 4 55 32
65 197 69 74 2 137 6 139 9 7 6 4 7 41 -6z m7492 -8 c-11 -19 -79 -56 -88 -48
-4 5 84 66 95 67 1 0 -2 -8 -7 -19z m-6173 -74 c49 -54 41 -112 -11 -73 -16
12 -17 18 -6 38 11 21 11 22 -5 9 -13 -11 -20 -11 -28 -3 -7 7 -22 12 -33 12
-30 0 -35 8 -23 36 20 43 52 38 106 -19z m-1251 17 c-3 -3 -12 -4 -19 -1 -8 3
-5 6 6 6 11 1 17 -2 13 -5z m1133 -64 c-19 -13 -30 -13 -30 0 0 6 10 10 23 10
18 0 19 -2 7 -10z m5713 -7 c-7 -2 -19 -2 -25 0 -7 3 -2 5 12 5 14 0 19 -2 13
-5z m-5673 -127 c0 -6 -22 12 -50 39 -27 27 -50 54 -50 59 0 6 23 -12 50 -39
28 -27 50 -54 50 -59z m1549 74 c-6 -16 -15 -30 -20 -30 -14 0 -10 -30 6 -46
11 -12 13 -29 8 -75 -5 -51 -4 -59 11 -59 9 0 16 -8 16 -20 0 -15 7 -20 25
-20 18 0 25 -5 25 -19 0 -15 8 -21 38 -24 23 -2 12 -4 -29 -5 -125 -3 -390 81
-486 154 -18 14 -33 29 -33 34 0 5 19 14 43 20 23 6 98 29 167 50 69 21 150
46 180 54 30 8 56 15 57 15 1 1 -3 -12 -8 -29z m123 -25 c6 -11 -4 -5 -21 13
-17 18 -31 36 -31 39 0 11 41 -31 52 -52z m-1312 -62 c0 -2 -6 -3 -12 -2 -7 1
-21 -1 -31 -6 -10 -4 -21 -5 -24 -1 -8 8 39 24 55 19 6 -3 12 -7 12 -10z m457
-77 c40 0 73 -5 73 -10 0 -14 -169 -1 -183 14 -10 10 -7 11 13 5 14 -4 58 -8
97 -9z m166 -3 c26 -14 29 -18 13 -21 -10 -2 -22 1 -25 7 -4 5 -18 14 -31 20
-19 7 -20 10 -7 10 10 1 32 -7 50 -16z m988 -30 c13 -16 12 -17 -3 -4 -17 13
-22 21 -14 21 2 0 10 -8 17 -17z m-3584 -60 c-3 -10 -5 -2 -5 17 0 19 2 27 5
18 2 -10 2 -26 0 -35z m3400 25 c-3 -8 -6 -5 -6 6 -1 11 2 17 5 13 3 -3 4 -12
1 -19z m5896 -95 l38 -6 -28 -29 c-34 -35 -114 -60 -182 -56 -28 2 -51 4 -51
4 0 1 20 23 45 48 42 42 50 46 93 46 26 0 64 -3 85 -7z m-6743 -71 c0 -4 -20
-18 -45 -32 -25 -14 -45 -30 -45 -37 0 -15 -28 -17 -48 -5 -16 11 35 65 55 58
7 -3 13 -1 13 4 0 5 12 11 28 13 15 2 30 5 35 6 4 0 7 -2 7 -7z m15 -102 c3
-5 -3 -10 -14 -10 -12 0 -21 5 -21 10 0 6 6 10 14 10 8 0 18 -4 21 -10z m185
-18 c19 -10 54 -30 77 -45 24 -15 48 -27 54 -27 6 0 35 -7 65 -16 46 -13 53
-18 43 -30 -10 -12 -14 -12 -20 -2 -7 10 -9 9 -9 -4 0 -18 -8 -21 -90 -37
-114 -22 -105 -24 -139 30 -18 26 -48 62 -68 78 -20 17 -35 32 -32 34 8 5 74
36 79 36 3 1 21 -7 40 -17z m-2080 -121 c0 -6 -16 -14 -36 -20 -29 -8 -38 -7
-53 8 -17 17 -16 18 35 20 30 1 54 -3 54 -8z m7280 -65 c0 -2 -7 -7 -16 -10
-8 -3 -12 -2 -9 4 6 10 25 14 25 6z m-4790 -36 c22 -13 4 -18 -130 -30 -140
-12 -170 -13 -170 -2 0 28 263 56 300 32z m203 -7 c-13 -2 -33 -2 -45 0 -13 2
-3 4 22 4 25 0 35 -2 23 -4z"/>
<path d="M563 10093 c37 -2 97 -2 135 0 37 2 6 3 -68 3 -74 0 -105 -1 -67 -3z"/>
<path d="M1653 10093 c9 -2 23 -2 30 0 6 3 -1 5 -18 5 -16 0 -22 -2 -12 -5z"/>
<path d="M1878 10093 c6 -2 18 -2 25 0 6 3 1 5 -13 5 -14 0 -19 -2 -12 -5z"/>
<path d="M4473 10093 c26 -2 68 -2 95 0 26 2 4 3 -48 3 -52 0 -74 -1 -47 -3z"/>
<path d="M1889 8966 c26 -28 31 -31 31 -17 0 5 -12 17 -27 26 l-28 18 24 -27z"/>
<path d="M1418 7863 c7 -3 16 -2 19 1 4 3 -2 6 -13 5 -11 0 -14 -3 -6 -6z"/>
<path d="M3497 7799 c7 -7 15 -10 18 -7 3 3 -2 9 -12 12 -14 6 -15 5 -6 -5z"/>
<path d="M3880 7788 c0 -18 5 -28 15 -28 19 0 19 11 0 36 -14 18 -14 18 -15
-8z"/>
<path d="M3925 7700 c-3 -5 -1 -19 5 -31 15 -27 35 -10 25 20 -7 22 -20 27
-30 11z"/>
<path d="M2035 7650 c-3 -5 1 -10 10 -10 9 0 13 5 10 10 -3 6 -8 10 -10 10 -2
0 -7 -4 -10 -10z"/>
<path d="M580 7560 c0 -22 5 -40 10 -40 6 0 10 9 10 20 0 13 7 20 20 20 13 0
20 7 20 20 0 16 -7 20 -30 20 -28 0 -30 -2 -30 -40z"/>
<path d="M1720 7580 c0 -13 7 -20 20 -20 13 0 20 7 20 20 0 13 -7 20 -20 20
-13 0 -20 -7 -20 -20z"/>
<path d="M1600 7461 l0 -71 36 0 c19 0 41 6 48 13 8 7 35 14 62 16 27 1 51 6
52 12 2 5 12 9 23 9 16 0 19 7 19 40 l0 40 -104 0 c-57 0 -111 3 -120 6 -14 5
-16 -4 -16 -65z m80 4 c0 -8 -9 -15 -20 -15 -11 0 -20 7 -20 15 0 8 9 15 20
15 11 0 20 -7 20 -15z"/>
<path d="M1480 7500 c0 -13 7 -20 20 -20 13 0 20 7 20 20 0 13 -7 20 -20 20
-13 0 -20 -7 -20 -20z"/>
<path d="M1210 7083 c-134 -21 -261 -66 -350 -124 -14 -9 -54 -35 -90 -57 -89
-57 -192 -161 -275 -277 -73 -103 -100 -155 -130 -245 -10 -30 -21 -59 -25
-65 -15 -19 -33 -170 -33 -280 -1 -106 20 -242 43 -283 5 -9 21 -47 35 -85 39
-108 162 -262 282 -354 15 -12 42 -32 58 -46 17 -13 41 -28 55 -32 14 -4 62
-27 108 -51 87 -46 139 -59 107 -28 -9 9 -15 18 -13 19 2 2 75 8 163 15 228
16 326 44 442 122 107 73 240 179 284 225 202 214 301 490 285 788 -3 61 -8
125 -11 142 -4 18 -2 40 3 49 8 14 15 4 41 -47 40 -82 60 -181 68 -341 3 -71
10 -128 14 -128 17 0 24 58 23 185 -1 103 -6 146 -23 205 -22 71 -88 207 -117
240 -148 165 -294 292 -408 355 -60 34 -170 73 -256 91 -60 13 -220 17 -280 7z
m345 -93 c90 -28 224 -99 286 -151 103 -86 185 -223 221 -369 53 -217 24 -449
-81 -650 -50 -94 -198 -277 -265 -325 -15 -11 -46 -34 -69 -52 -105 -79 -304
-156 -437 -168 -256 -23 -528 95 -676 292 -65 85 -97 155 -135 285 -46 162
-40 342 18 488 136 346 379 579 684 656 83 21 112 23 239 20 115 -3 160 -8
215 -26z"/>
<path d="M1122 6874 c-117 -31 -291 -135 -379 -226 -85 -88 -190 -293 -219
-427 -24 -117 -12 -305 29 -411 60 -159 209 -315 356 -374 185 -73 421 -51
633 61 113 59 278 237 324 349 8 22 24 57 35 80 29 62 41 146 43 294 0 100 -4
152 -17 199 -50 184 -166 330 -318 400 -46 21 -114 46 -150 55 -82 20 -263 20
-337 0z m379 -77 c117 -38 217 -108 288 -203 81 -107 95 -154 95 -314 0 -124
-3 -144 -33 -240 -48 -153 -104 -249 -203 -350 -64 -66 -100 -94 -158 -122
-170 -83 -291 -106 -434 -83 -175 27 -315 136 -400 310 -76 158 -80 171 -73
303 6 127 35 237 84 321 32 54 43 42 43 -49 0 -38 5 -71 12 -78 7 -7 35 -12
63 -12 27 0 56 -4 63 -9 16 -9 40 -108 52 -206 4 -38 11 -98 15 -131 l8 -61
-44 -15 -44 -15 2 -75 c1 -41 7 -86 12 -101 14 -36 60 -47 141 -34 115 17 113
18 125 -33 14 -65 20 -70 76 -70 51 0 95 17 119 45 9 11 22 14 46 9 44 -8 123
11 158 39 26 21 27 23 15 68 -7 25 -10 52 -7 61 3 8 36 32 73 54 114 66 185
173 185 278 -1 80 -64 176 -142 217 -42 21 -43 25 -27 80 34 112 -80 245 -217
253 -59 4 -74 14 -74 54 0 13 -12 35 -26 49 -23 23 -31 25 -74 20 -27 -3 -66
-14 -87 -25 -21 -10 -60 -24 -87 -31 -27 -7 -62 -19 -79 -27 -28 -15 -29 -18
-23 -67 3 -29 3 -57 -1 -63 -10 -15 -166 -64 -204 -64 -35 0 -36 7 -6 46 86
118 262 239 404 280 63 18 299 12 364 -9z m-253 -122 c7 -14 12 -35 12 -46 0
-48 16 -58 91 -58 168 1 246 -113 162 -234 -33 -48 -24 -68 38 -82 63 -15 85
-30 114 -79 27 -46 34 -122 15 -171 -16 -43 -103 -118 -179 -155 -79 -38 -84
-49 -57 -128 18 -50 6 -65 -51 -60 l-38 3 -3 52 c-3 58 -19 77 -55 68 -47 -12
-59 -35 -46 -92 14 -62 9 -78 -27 -87 -36 -9 -50 9 -59 75 -4 30 -13 53 -22
56 -8 3 -49 -2 -91 -12 -102 -23 -133 -19 -143 19 -10 37 1 52 46 60 57 11 59
28 26 188 -78 375 -72 363 -155 346 -51 -11 -71 6 -61 52 8 37 31 49 148 74
94 21 115 42 98 102 -12 43 -2 69 31 80 21 6 48 -16 48 -40 0 -6 5 -28 11 -48
8 -30 15 -38 32 -38 46 0 59 44 37 120 -8 29 -7 37 7 48 28 20 59 15 71 -13z"/>
<path d="M1185 6423 c-11 -3 -44 -14 -74 -25 l-53 -20 7 -57 c9 -74 29 -121
52 -121 44 0 195 49 218 70 52 49 53 109 3 144 -22 16 -107 20 -153 9z m114
-68 c11 -11 -56 -63 -95 -74 -44 -12 -67 0 -62 33 5 35 130 68 157 41z"/>
<path d="M1240 6126 l-105 -34 3 -79 c5 -146 16 -159 122 -137 92 19 163 50
203 89 40 39 50 78 32 120 -34 81 -100 91 -255 41z m178 -69 c6 -31 -25 -66
-65 -72 -21 -4 -54 -13 -75 -20 -43 -17 -62 -4 -56 41 3 24 11 30 68 49 78 27
123 28 128 2z"/>
<path d="M2251 5954 c0 -11 3 -14 6 -6 3 7 2 16 -1 19 -3 4 -6 -2 -5 -13z"/>
<path d="M2168 5713 c-26 -31 -36 -57 -27 -78 7 -19 8 -19 8 3 1 13 5 20 11
17 7 -4 9 2 4 19 -5 21 -3 25 10 20 12 -4 16 0 16 15 0 26 -3 26 -22 4z"/>
<path d="M2044 5524 c-47 -55 -58 -74 -45 -74 11 0 101 98 101 111 0 20 -20 7
-56 -37z"/>
<path d="M1965 5429 c-11 -17 1 -21 15 -4 8 9 8 15 2 15 -6 0 -14 -5 -17 -11z"/>
<path d="M2613 9903 c-16 -3 -32 -23 -54 -69 -17 -36 -28 -71 -26 -78 11 -28
121 -25 180 5 72 37 99 102 55 133 -21 15 -100 20 -155 9z"/>
<path d="M2525 9663 c-16 -3 -36 -10 -43 -16 -21 -17 -72 -131 -72 -160 l0
-27 83 0 c91 1 140 15 192 54 62 47 59 121 -5 143 -35 12 -97 14 -155 6z m100
-93 c12 -20 -17 -40 -56 -40 -42 0 -57 13 -39 35 14 17 86 20 95 5z"/>
<path d="M5898 9543 c12 -2 32 -2 45 0 12 2 2 4 -23 4 -25 0 -35 -2 -22 -4z"/>
<path d="M5948 9521 c-102 -23 -206 -77 -297 -154 -108 -90 -184 -211 -166
-260 4 -9 33 -19 79 -27 77 -13 161 -5 272 26 29 7 71 16 94 19 38 5 42 4 35
-12 -4 -10 -19 -49 -32 -88 -28 -79 -27 -163 3 -196 16 -18 18 -17 61 16 25
19 73 48 107 64 147 69 209 96 271 116 22 7 49 16 60 20 14 5 8 -5 -17 -31
-35 -37 -46 -63 -33 -76 4 -3 36 5 73 18 74 25 324 74 382 74 37 0 100 33 108
58 7 22 -136 14 -304 -18 -88 -16 -160 -30 -161 -30 -12 0 1 32 15 37 21 8
133 92 149 113 27 33 15 38 -54 24 -118 -24 -196 -47 -258 -74 -33 -15 -71
-31 -85 -35 -14 -4 -36 -15 -49 -24 -13 -8 -31 -16 -40 -18 -8 -1 -20 -8 -26
-16 -16 -23 -78 -57 -102 -57 -12 0 -27 -8 -33 -17 -9 -14 -10 -11 -5 15 18
94 149 240 273 305 114 60 101 66 -88 43 -146 -19 -318 -52 -395 -76 -33 -10
-76 -22 -95 -25 -19 -4 -43 -14 -52 -22 -9 -8 -25 -13 -35 -11 -14 3 -4 17 47
68 129 128 237 193 410 244 l85 25 -60 0 c-33 -1 -95 -9 -137 -18z"/>
<path d="M4878 9343 c7 -3 16 -2 19 1 4 3 -2 6 -13 5 -11 0 -14 -3 -6 -6z"/>
<path d="M7590 9212 c0 -12 19 -26 26 -19 2 2 -2 10 -11 17 -9 8 -15 8 -15 2z"/>
<path d="M4718 8633 c7 -3 16 -2 19 1 4 3 -2 6 -13 5 -11 0 -14 -3 -6 -6z"/>
<path d="M4088 8623 c7 -3 16 -2 19 1 4 3 -2 6 -13 5 -11 0 -14 -3 -6 -6z"/>
<path d="M5478 8583 c12 -2 30 -2 40 0 9 3 -1 5 -23 4 -22 0 -30 -2 -17 -4z"/>
<path d="M5878 8563 c23 -2 59 -2 80 0 20 2 1 4 -43 4 -44 0 -61 -2 -37 -4z"/>
<path d="M6053 8560 c20 -4 54 -4 75 0 29 6 21 8 -38 8 -59 0 -67 -2 -37 -8z"/>
<path d="M6220 8560 c0 -5 5 -10 11 -10 5 0 7 5 4 10 -3 6 -8 10 -11 10 -2 0
-4 -4 -4 -10z"/>
<path d="M5437 8482 c1 -8 3 -16 3 -18 0 -2 5 -4 10 -4 6 0 10 7 10 16 0 8 -4
13 -9 10 -5 -4 -11 -3 -14 1 -2 5 -2 2 0 -5z"/>
<path d="M7662 8458 c3 -7 13 -15 22 -16 12 -3 17 1 14 10 -3 7 -13 15 -22 16
-12 3 -17 -1 -14 -10z"/>
<path d="M5025 7419 c-46 -26 -95 -83 -95 -111 0 -22 5 -28 23 -28 12 0 35 9
52 20 l29 19 49 -55 c129 -144 503 -235 962 -235 122 1 221 6 275 16 97 16
241 63 301 97 33 18 43 20 57 10 36 -26 85 -43 95 -33 14 14 0 73 -26 112 -25
37 -94 77 -151 86 -31 5 -42 2 -53 -12 -12 -17 -9 -23 18 -51 l31 -32 -25 -17
c-115 -75 -398 -115 -675 -96 -364 26 -639 97 -757 196 -26 21 -28 27 -17 42
22 32 25 45 15 62 -12 19 -80 26 -108 10z"/>
<path d="M2910 6088 c0 -8 7 -15 15 -15 18 0 15 19 -3 25 -7 2 -12 -3 -12 -10z"/>
<path d="M7338 5553 c7 -3 16 -2 19 1 4 3 -2 6 -13 5 -11 0 -14 -3 -6 -6z"/>
<path d="M8449 5400 c-31 -5 -83 -18 -115 -28 -33 -11 -75 -23 -94 -27 -38 -7
-104 -34 -98 -40 7 -7 155 13 253 35 85 19 119 21 225 16 128 -6 228 -24 280
-51 19 -10 30 -11 30 -5 0 15 -132 74 -195 88 -71 16 -220 22 -286 12z"/>
<path d="M8940 5288 c21 -19 70 -48 70 -40 0 5 -12 15 -27 23 -36 17 -49 23
-43 17z"/>
<path d="M6501 4535 c0 -29 16 -104 18 -80 1 17 3 18 11 5 17 -27 11 11 -10
55 -12 26 -19 33 -19 20z"/>
<path d="M4785 5264 c-145 -37 -245 -94 -341 -195 -79 -83 -111 -140 -130
-230 -20 -93 -12 -160 27 -238 38 -75 91 -124 187 -169 69 -33 82 -36 166 -35
173 0 328 65 451 188 188 189 200 412 31 580 -71 71 -139 97 -271 101 -55 1
-109 1 -120 -2z m226 -73 c80 -27 110 -45 153 -88 74 -74 97 -166 72 -277 -42
-180 -168 -299 -380 -360 -105 -31 -146 -32 -247 -8 -225 54 -309 259 -197
480 56 112 208 226 358 269 58 17 168 10 241 -16z"/>
<path d="M4879 5159 l-39 -43 -66 24 c-42 15 -69 19 -75 13 -6 -6 18 -21 68
-41 l78 -31 42 44 c23 25 47 45 52 45 22 0 19 -20 -10 -59 -33 -46 -32 -56 7
-65 21 -6 33 -1 53 18 14 14 38 29 54 35 23 9 27 8 27 -8 0 -10 -14 -30 -31
-46 l-32 -27 31 -24 c77 -60 59 -166 -30 -180 -42 -7 -48 -24 -23 -58 26 -35
19 -82 -19 -123 -32 -36 -37 -38 -108 -41 -51 -3 -85 1 -111 12 -27 11 -37 12
-37 3 0 -7 -10 -25 -23 -40 -20 -25 -24 -27 -49 -15 l-27 13 31 32 c26 27 29
35 18 48 -20 24 -38 18 -81 -27 -29 -31 -42 -39 -51 -30 -8 8 -4 23 16 56 23
40 24 46 11 60 -9 9 -38 23 -66 33 -55 20 -62 41 -17 57 20 7 35 6 52 -3 13
-8 29 -10 36 -6 6 4 37 46 69 93 32 48 70 105 84 126 15 21 27 42 27 45 0 3
-14 21 -32 40 l-32 34 -23 -27 c-28 -33 -29 -46 -3 -53 28 -7 25 -24 -11 -69
-18 -22 -47 -63 -66 -92 -33 -50 -36 -52 -68 -46 -31 5 -39 2 -70 -29 -45 -45
-47 -80 -5 -102 16 -8 35 -15 42 -15 36 -1 40 -17 14 -59 -15 -23 -24 -46 -21
-51 14 -23 67 -41 98 -34 29 6 31 5 17 -11 -13 -15 -12 -19 9 -36 42 -34 76
-29 118 18 l32 35 51 -12 c56 -13 128 -7 173 16 33 18 83 85 91 122 3 15 2 41
-2 57 -8 27 -6 31 22 45 40 19 56 53 56 116 0 41 -6 59 -30 92 l-29 41 26 32
c26 30 26 32 8 45 -10 8 -23 14 -27 14 -5 0 -32 15 -61 34 -83 54 -92 55 -138
5z m121 -43 c0 -16 -18 -31 -27 -22 -8 8 5 36 17 36 5 0 10 -6 10 -14z m-350
-606 c0 -5 -7 -10 -15 -10 -8 0 -15 5 -15 10 0 6 7 10 15 10 8 0 15 -4 15 -10z"/>
<path d="M4813 4998 c-29 -33 -53 -71 -53 -84 0 -13 109 -64 137 -64 11 0 32
9 47 21 44 35 31 86 -32 118 -64 32 -77 33 -99 9z m81 -60 c23 -33 20 -38 -24
-38 -35 0 -40 3 -40 23 0 13 3 27 7 30 13 14 42 6 57 -15z"/>
<path d="M4699 4823 c-14 -15 -36 -43 -48 -60 l-22 -33 23 -9 c13 -5 38 -21
57 -35 27 -20 46 -26 87 -26 45 0 56 4 74 27 14 19 20 38 18 62 -3 33 -8 39
-58 63 -87 42 -101 43 -131 11z m114 -52 c31 -12 34 -27 10 -53 -22 -25 -56
-23 -89 5 -24 21 -25 26 -14 46 13 24 33 25 93 2z"/>
<path d="M1393 4725 c0 -22 2 -30 4 -17 2 12 2 30 0 40 -3 9 -5 -1 -4 -23z"/>
<path d="M1510 4742 c0 -11 3 -34 6 -51 5 -24 12 -31 30 -31 21 0 24 5 24 35
0 38 18 47 40 20 8 -10 17 -12 23 -6 10 10 118 -16 128 -32 4 -6 13 -6 23 0
13 7 -15 18 -111 42 -70 18 -136 35 -145 38 -13 3 -18 -1 -18 -15z"/>
<path d="M5391 4637 c-13 -21 -12 -21 5 -5 10 10 16 20 13 22 -3 3 -11 -5 -18
-17z"/>
<path d="M1600 4366 c0 -2 7 -7 16 -10 8 -3 12 -2 9 4 -6 10 -25 14 -25 6z"/>
<path d="M1670 4344 c19 -8 43 -13 55 -11 18 3 17 5 -8 15 -16 7 -40 12 -55
12 -26 -1 -26 -1 8 -16z"/>
<path d="M1465 4090 c3 -5 11 -10 16 -10 6 0 7 5 4 10 -3 6 -11 10 -16 10 -6
0 -7 -4 -4 -10z"/>
<path d="M3765 4330 c-16 -16 -26 -32 -24 -35 3 -3 18 9 34 25 16 16 26 32 24
35 -3 3 -18 -9 -34 -25z"/>
<path d="M3860 4331 c-73 -15 -110 -52 -110 -111 0 -71 75 -139 153 -140 40 0
94 27 117 60 77 108 -16 219 -160 191z m94 -73 c34 -48 5 -98 -56 -98 -30 0
-68 34 -68 62 0 53 94 80 124 36z"/>
<path d="M3531 3991 c-23 -27 -41 -53 -41 -57 0 -9 32 26 71 79 34 45 14 31
-30 -22z"/>
<path d="M944 3478 c-4 -7 -14 -23 -22 -35 -8 -13 -10 -23 -6 -23 11 0 47 61
40 67 -2 2 -7 -2 -12 -9z"/>
<path d="M2731 2870 c0 -8 4 -22 9 -30 12 -18 12 -2 0 25 -6 13 -9 15 -9 5z"/>
<path d="M9650 3424 c-36 -12 -96 -30 -135 -39 -221 -52 -224 -54 -236 -155
-4 -30 -12 -73 -18 -95 -8 -32 -7 -45 4 -62 13 -19 21 -21 62 -16 123 15 357
114 382 162 9 17 18 218 10 224 -2 1 -33 -7 -69 -19z"/>
<path d="M4892 1990 c18 -48 44 -100 51 -100 4 0 -5 24 -19 53 -26 52 -42 75
-32 47z"/>
<path d="M9595 2454 c-44 -14 -132 -33 -195 -44 -159 -27 -160 -27 -160 -61 0
-15 -4 -39 -9 -52 -5 -14 -14 -60 -20 -102 -10 -71 -10 -80 7 -95 10 -9 24
-16 32 -15 8 1 41 5 72 9 118 13 351 115 377 164 4 9 11 63 14 120 6 120 12
116 -118 76z"/>
<path d="M600 2255 c0 -8 5 -15 10 -15 6 0 10 7 10 15 0 8 -4 15 -10 15 -5 0
-10 -7 -10 -15z"/>
<path d="M1000 1655 c7 -9 29 -23 49 -32 20 -9 38 -20 41 -24 3 -4 24 -14 48
-22 36 -12 41 -13 31 -1 -6 8 -21 14 -34 14 -12 0 -30 9 -40 20 -10 11 -24 20
-30 20 -7 0 -24 9 -38 20 -30 24 -45 26 -27 5z"/>
<path d="M7990 1875 c0 -134 0 -134 29 -168 16 -18 57 -47 92 -65 102 -53 142
-38 75 29 -46 46 -96 143 -96 185 0 19 -7 46 -16 59 -9 13 -13 28 -11 33 3 4
3 13 -1 18 -9 13 -54 44 -64 44 -5 0 -8 -61 -8 -135z"/>
<path d="M565 1398 c18 -57 136 -169 243 -230 59 -34 72 -35 43 -4 -13 14 -29
22 -36 20 -18 -7 -152 125 -136 135 9 6 4 15 -19 35 -17 14 -38 26 -46 26 -8
0 -14 4 -14 10 0 5 -9 14 -21 21 -19 10 -20 9 -14 -13z"/>
<path d="M881 1133 c0 -11 59 -56 65 -51 2 3 -11 17 -31 32 -19 15 -35 23 -34
19z"/>
<path d="M7023 1454 c-56 -12 -234 -93 -206 -94 6 0 54 11 105 25 51 14 116
25 145 25 28 0 64 5 80 11 l27 10 -43 20 c-24 10 -44 18 -45 18 0 -1 -29 -8
-63 -15z"/>
<path d="M8121 1024 c-90 -42 -117 -63 -153 -117 -56 -84 -35 -87 113 -11 113
58 159 98 159 140 0 33 -27 31 -119 -12z"/>
<path d="M8085 826 c-153 -56 -199 -80 -215 -112 -8 -16 -24 -45 -36 -64 -24
-41 -48 -109 -41 -117 3 -2 32 10 64 29 32 18 87 46 123 63 154 70 273 180
239 221 -16 20 -32 17 -134 -20z m16 -80 c-22 -23 -138 -85 -188 -100 -18 -6
-22 -4 -17 9 7 16 187 114 213 114 10 1 7 -7 -8 -23z"/>
<path d="M88 713 c6 -2 18 -2 25 0 6 3 1 5 -13 5 -14 0 -19 -2 -12 -5z"/>
<path d="M737 534 c3 -8 12 -13 20 -10 8 3 17 6 19 6 2 0 4 5 4 10 0 6 -11 10
-25 10 -18 0 -23 -4 -18 -16z"/>
<path d="M702 462 c-10 -33 -16 -95 -13 -129 1 -7 10 -13 21 -13 33 0 40 34
31 156 -1 7 -7 14 -15 17 -9 4 -17 -7 -24 -31z"/>
<path d="M9368 829 c-18 -24 -54 -63 -80 -87 -26 -25 -45 -49 -42 -54 9 -14
219 0 276 18 84 27 141 122 86 143 -13 4 -64 11 -115 15 l-91 7 -34 -42z m180
-51 c-6 -20 -68 -45 -125 -52 -60 -8 -66 1 -28 39 21 22 33 25 90 25 49 0 66
-3 63 -12z"/>
<path d="M8551 10184 c0 -11 3 -14 6 -6 3 7 2 16 -1 19 -3 4 -6 -2 -5 -13z"/>
<path d="M8728 10093 c23 -2 59 -2 80 0 20 2 1 4 -43 4 -44 0 -61 -2 -37 -4z"/>
<path d="M8878 10093 c18 -2 45 -2 60 0 15 2 0 4 -33 4 -33 0 -45 -2 -27 -4z"/>
<path d="M9023 10093 c15 -2 39 -2 55 0 15 2 2 4 -28 4 -30 0 -43 -2 -27 -4z"/>
<path d="M9225 10090 c-19 -8 -19 -9 2 -9 12 -1 25 4 28 9 7 12 -2 12 -30 0z"/>
<path d="M9368 10093 c6 -2 18 -2 25 0 6 3 1 5 -13 5 -14 0 -19 -2 -12 -5z"/>
<path d="M6488 10083 c23 -2 59 -2 80 0 20 2 1 4 -43 4 -44 0 -61 -2 -37 -4z"/>
<path d="M9638 10083 c12 -2 32 -2 45 0 12 2 2 4 -23 4 -25 0 -35 -2 -22 -4z"/>
<path d="M8786 9851 c-38 -15 -165 -137 -187 -179 -29 -59 -23 -114 28 -229
50 -112 189 -327 207 -320 14 6 138 -124 226 -237 8 -10 31 -37 50 -59 19 -23
28 -37 20 -32 -8 5 7 -15 34 -44 26 -29 44 -56 40 -61 -5 -4 -126 -11 -269
-14 -143 -4 -268 -7 -277 -7 -23 0 -23 -5 3 -41 12 -16 54 -93 93 -169 l71
-140 655 -1 c360 0 679 0 708 1 l52 1 0 170 0 170 -48 0 c-57 0 -107 35 -117
82 -4 16 -13 32 -21 35 -8 3 -14 12 -14 19 0 8 -5 20 -10 27 -6 7 -27 33 -47
60 -19 26 -41 47 -48 47 -6 0 -17 11 -23 25 -6 14 -16 25 -21 25 -12 0 -58 78
-67 114 -6 27 -6 28 17 15 23 -12 23 -11 9 7 -56 71 -395 394 -438 418 -9 5 3
-10 28 -34 27 -26 40 -45 33 -47 -13 -5 -47 18 -110 75 -19 17 -39 32 -44 32
-4 0 -28 13 -52 30 -45 30 -106 100 -88 100 5 0 13 -4 16 -10 3 -5 11 -10 16
-10 22 0 -8 24 -115 95 -65 43 -132 79 -157 84 -51 12 -125 13 -153 2z m205
-137 c34 -32 37 -49 9 -41 -15 4 -27 -4 -45 -27 -30 -40 -30 -46 -5 -95 25
-50 43 -56 76 -26 l26 24 40 -22 c96 -54 112 -99 57 -155 l-32 -33 34 -42 c68
-85 258 -293 313 -342 31 -27 56 -53 56 -57 0 -18 -35 -5 -73 27 -22 19 -46
35 -52 35 -15 0 -50 39 -59 65 -5 13 -9 16 -14 8 -5 -8 -13 -9 -22 -3 -19 12
-33 13 -25 1 3 -5 1 -12 -5 -16 -5 -3 -10 1 -10 9 0 9 -4 16 -10 16 -5 0 -10
9 -10 21 0 25 -22 21 -26 -5 -3 -20 35 -68 47 -60 5 3 6 -1 3 -9 -3 -8 2 -17
10 -20 9 -4 15 -17 15 -29 -1 -13 3 -36 10 -51 6 -16 9 -33 5 -38 -8 -14 -52
-11 -85 7 -38 19 -169 139 -184 168 -7 11 -35 46 -64 76 -28 30 -63 76 -76
102 -23 43 -32 97 -20 110 3 3 31 1 61 -4 51 -8 88 -2 57 9 -7 3 -13 13 -13
23 0 10 -4 21 -9 24 -25 16 -99 183 -92 209 1 5 -3 33 -8 63 -7 37 -7 63 1 85
10 29 13 31 50 26 25 -3 51 -16 69 -33z m529 -296 c0 -7 -5 -6 -13 1 -8 6 -18
7 -22 3 -5 -4 -5 -2 -1 5 8 14 36 6 36 -9z m73 -82 c-4 -6 -8 -5 -11 3 -2 7
-15 16 -28 21 -13 5 -24 17 -24 25 0 12 8 9 34 -12 19 -15 32 -31 29 -37z
m-246 10 c56 -26 83 -64 83 -114 0 -17 6 -32 15 -36 17 -6 21 -36 5 -36 -5 0
-10 7 -10 15 0 9 -9 15 -23 15 -29 0 -100 60 -133 111 -45 73 -26 86 63 45z
m401 -139 c3 -16 1 -17 -17 -7 -25 13 -28 33 -4 28 10 -2 19 -11 21 -21z m42
-58 c0 -6 -4 -7 -10 -4 -5 3 -10 11 -10 16 0 6 5 7 10 4 6 -3 10 -11 10 -16z
m-267 -19 c1 0 18 4 37 10 26 8 39 6 57 -6 28 -18 73 -115 71 -151 -2 -22 -6
-24 -32 -19 -61 13 -198 154 -175 182 9 11 13 11 26 -1 8 -8 15 -15 16 -15z
m285 -280 c23 -29 22 -50 -2 -50 -6 0 -31 14 -55 31 -31 24 -39 34 -29 40 26
17 63 8 86 -21z m158 -285 c13 -17 24 -38 24 -47 0 -22 -54 -54 -115 -68 -46
-10 -53 -9 -112 20 -147 73 -109 132 81 127 96 -3 99 -4 122 -32z"/>
<path d="M9230 9666 c0 -2 8 -10 18 -17 15 -13 16 -12 3 4 -13 16 -21 21 -21
13z"/>
<path d="M9505 7970 c-297 -4 -540 -7 -540 -8 0 -131 9 -250 21 -266 8 -11 14
-28 14 -38 0 -10 5 -18 10 -18 6 0 10 9 10 20 0 11 5 20 10 20 6 0 10 18 10
40 0 22 5 40 10 40 6 0 10 -18 10 -40 0 -22 -4 -40 -9 -40 -5 0 -12 -18 -16
-40 -6 -36 -10 -40 -35 -40 -17 0 -33 7 -38 16 -5 9 -14 14 -19 11 -14 -9 -14
-69 -1 -85 9 -10 9 -15 -1 -21 -10 -6 -9 -10 3 -14 9 -4 16 -2 16 3 0 6 32 10
70 10 63 0 70 -2 70 -20 0 -11 5 -20 10 -20 6 0 10 9 10 20 0 11 5 20 10 20 6
0 10 -7 10 -15 0 -18 48 -64 67 -65 6 0 15 -9 18 -20 6 -17 15 -20 75 -20 38
0 75 -3 84 -6 12 -5 16 0 16 20 0 24 4 26 39 26 30 0 40 4 44 20 3 11 12 20
21 20 9 0 16 -8 16 -20 0 -18 7 -20 93 -21 50 -1 104 0 119 1 22 1 27 -3 30
-27 l3 -28 150 -1 c199 -1 217 -2 210 -14 -4 -6 11 -10 39 -10 24 0 51 -3 60
-6 14 -6 16 25 16 305 l0 311 -84 0 c-46 0 -90 1 -98 3 -7 1 -256 0 -553 -3z
m220 -310 c3 -11 13 -20 21 -20 8 0 14 -9 14 -20 0 -17 7 -20 40 -20 47 0 58
-27 13 -32 -20 -2 -29 -9 -31 -25 -3 -23 -6 -23 -133 -23 -122 0 -129 1 -129
20 0 13 7 20 20 20 17 0 20 7 20 40 l0 40 40 0 c22 0 40 5 40 10 0 6 9 10 20
10 11 0 20 5 20 10 0 19 39 10 45 -10z m-618 -22 c-3 -8 -6 -5 -6 6 -1 11 2
17 5 13 3 -3 4 -12 1 -19z m98 -68 c3 -5 -1 -10 -10 -10 -9 0 -13 5 -10 10 3
6 8 10 10 10 2 0 7 -4 10 -10z m635 -30 c0 -5 -9 -10 -20 -10 -11 0 -20 5 -20
10 0 6 9 10 20 10 11 0 20 -4 20 -10z m-150 -60 c0 -5 -5 -10 -11 -10 -5 0 -7
5 -4 10 3 6 8 10 11 10 2 0 4 -4 4 -10z"/>
<path d="M9040 7428 c0 -6 -10 -22 -22 -35 -19 -20 -20 -25 -8 -33 23 -15 27
-12 39 21 14 40 14 59 1 59 -5 0 -10 -5 -10 -12z"/>
<path d="M9160 7420 c0 -11 7 -20 15 -20 8 0 15 9 15 20 0 11 -7 20 -15 20 -8
0 -15 -9 -15 -20z"/>
<path d="M10185 2111 c-69 -40 -81 -56 -94 -132 -29 -172 6 -297 113 -398 l36
-35 0 41 c0 23 -4 44 -9 47 -5 4 -28 42 -50 85 -34 66 -41 90 -41 137 0 31 5
74 12 96 13 45 62 103 78 93 6 -4 10 12 10 44 0 28 -1 51 -2 51 -2 0 -25 -13
-53 -29z"/>
<path d="M4905 1616 c-247 -39 -495 -177 -739 -414 -151 -147 -286 -424 -307
-632 -26 -244 67 -417 277 -522 l87 -43 220 -3 c211 -3 223 -2 309 22 219 63
515 258 672 442 122 143 227 386 246 570 9 87 8 107 -10 179 -29 111 -60 171
-122 232 -103 101 -222 155 -383 173 -110 12 -148 12 -250 -4z m334 -82 c75
-17 182 -71 240 -121 23 -19 60 -66 83 -105 l42 -71 0 -106 c0 -201 -58 -391
-166 -546 -72 -103 -144 -176 -262 -264 -351 -266 -731 -342 -1005 -204 -90
46 -151 106 -194 193 -32 64 -32 66 -31 210 0 135 3 151 32 237 62 181 124
283 262 426 140 147 356 283 525 332 162 47 326 54 474 19z"/>
<path d="M4904 1452 c-12 -9 -35 -38 -53 -64 -17 -26 -35 -49 -39 -52 -5 -3
-35 1 -68 9 -32 7 -90 18 -127 23 l-69 9 -41 -48 c-23 -26 -51 -67 -64 -90
-20 -39 -21 -45 -7 -60 8 -9 35 -22 60 -28 l45 -12 -19 -32 c-10 -18 -36 -61
-57 -97 -22 -36 -55 -90 -76 -120 -20 -30 -55 -92 -79 -137 -23 -46 -46 -83
-50 -83 -4 0 -27 7 -50 15 -60 21 -87 19 -113 -11 -35 -40 -106 -176 -100
-191 8 -21 49 -38 151 -64 72 -19 92 -27 88 -39 -2 -8 -16 -43 -31 -78 -19
-45 -23 -67 -16 -76 15 -17 138 -59 156 -53 8 4 28 31 46 62 17 30 32 55 34
55 2 0 -6 -28 -16 -62 -11 -34 -16 -65 -12 -68 5 -4 35 -13 68 -20 115 -24
109 -24 125 7 8 15 29 48 46 73 17 25 33 52 37 61 4 13 18 15 86 11 172 -10
303 42 394 156 74 94 97 208 59 295 -17 39 -18 47 -6 47 26 0 113 91 140 146
21 43 26 64 22 103 -7 69 -49 136 -101 162 -23 12 -44 23 -46 25 -2 1 13 30
34 63 21 35 35 71 33 83 -4 27 -71 64 -133 74 -38 5 -42 4 -54 -23 l-13 -28
-14 28 c-9 15 -26 32 -40 37 -40 16 -107 11 -130 -8z m96 -37 c17 -9 30 -17
30 -20 0 -2 -18 -32 -40 -66 -22 -34 -40 -67 -40 -74 0 -6 17 -17 37 -24 35
-13 38 -13 60 15 13 16 37 55 54 87 31 60 54 71 100 47 26 -15 25 -22 -23
-102 -35 -59 -40 -73 -28 -80 8 -5 38 -22 66 -38 85 -48 105 -119 59 -209 -25
-50 -54 -77 -134 -121 -24 -14 -46 -30 -48 -36 -2 -6 12 -30 32 -54 29 -35 35
-50 35 -88 -1 -99 -74 -203 -178 -254 -66 -32 -69 -33 -197 -32 -147 1 -130 9
-196 -100 -39 -65 -42 -68 -72 -62 -18 4 -38 13 -46 20 -11 12 -10 19 12 48
58 78 70 129 32 134 -70 11 -67 13 -128 -78 l-59 -88 -29 15 c-16 9 -29 20
-29 25 0 5 14 38 32 74 17 35 28 70 25 79 -3 8 -21 20 -39 25 -18 6 -74 22
-124 37 l-92 27 41 54 c22 30 42 54 44 54 3 0 32 -7 65 -15 44 -12 63 -13 73
-5 7 6 51 77 96 158 46 81 106 185 134 232 62 103 89 164 82 183 -3 8 -26 20
-51 27 -25 7 -46 14 -46 17 0 11 30 60 47 75 18 16 26 16 148 -13 147 -34 131
-38 182 51 30 51 62 90 75 90 5 0 22 -7 38 -15z m-559 -1108 c-10 -9 -11 -8
-5 6 3 10 9 15 12 12 3 -3 0 -11 -7 -18z"/>
<path d="M4787 1088 c-13 -24 -39 -66 -57 -95 -18 -29 -30 -59 -27 -67 7 -18
128 -46 197 -46 90 0 148 41 164 116 6 25 2 37 -19 62 -21 25 -41 34 -114 51
-49 12 -95 21 -104 21 -8 0 -26 -19 -40 -42z m135 -48 c20 -6 47 -19 59 -29
l23 -18 -28 -28 c-27 -27 -31 -28 -102 -22 -40 3 -78 8 -83 12 -6 3 3 25 21
50 34 48 47 52 110 35z"/>
<path d="M4593 780 c-10 -18 -42 -71 -70 -117 -29 -47 -53 -89 -53 -93 0 -20
158 -60 241 -60 78 0 157 26 191 62 22 24 28 39 28 77 0 68 -33 97 -147 126
-48 13 -107 26 -130 30 -41 6 -44 5 -60 -25z m193 -81 c78 -24 91 -39 68 -74
-35 -53 -84 -64 -199 -44 -93 16 -93 17 -50 88 l39 62 40 -7 c23 -3 69 -15
102 -25z"/>
<path d="M9025 1020 c4 -13 24 -54 45 -93 l38 -70 17 32 c26 50 9 78 -78 135
l-29 20 7 -24z"/>
<path d="M8968 944 c-10 -16 62 -170 78 -168 24 3 28 35 10 69 -27 50 -81 111
-88 99z"/>
<path d="M8907 884 c-4 -4 -7 -20 -7 -35 0 -15 -7 -34 -15 -43 -8 -8 -15 -21
-15 -29 0 -25 37 -63 80 -82 38 -17 42 -17 57 -2 20 20 12 43 -45 120 -21 29
-41 58 -43 65 -2 7 -8 10 -12 6z"/>
<path d="M8793 746 c-15 -17 -17 -27 -10 -44 15 -33 -7 -53 -27 -26 -14 18
-15 18 -21 2 -4 -10 -13 -18 -19 -18 -7 0 -25 -14 -42 -31 -16 -18 -23 -30
-16 -28 15 5 142 -113 142 -132 0 -10 4 -9 15 2 13 13 13 24 -6 97 -12 46 -19
86 -15 89 8 9 46 -27 46 -44 0 -7 5 -13 10 -13 6 0 10 -9 10 -19 0 -34 15 -31
54 9 l38 39 -58 65 c-33 36 -64 68 -70 70 -7 3 -20 -6 -31 -18z"/>
<path d="M10200 658 c-59 -104 -130 -211 -169 -253 -20 -22 -29 -34 -21 -27
20 17 33 15 26 -4 -4 -9 6 -30 24 -52 16 -19 27 -39 24 -43 -2 -4 14 -22 37
-40 43 -34 43 -34 69 12 17 30 -85 164 -116 152 -8 -3 -14 -1 -14 4 0 14 22
33 40 33 21 0 76 -50 84 -77 4 -11 18 -28 31 -37 l25 -16 0 61 c0 57 -3 65
-37 102 -38 43 -32 60 11 31 l26 -16 0 116 c0 64 -1 116 -2 116 -2 0 -19 -28
-38 -62z"/>
<path d="M6260 505 c0 -11 7 -30 15 -42 14 -20 17 -20 72 -7 66 16 221 18 242
5 12 -8 10 -11 -10 -15 -54 -11 -168 -26 -229 -30 -49 -2 -64 -7 -62 -17 5
-24 71 -79 94 -79 54 1 202 31 245 50 47 21 93 56 93 71 0 18 -33 37 -76 44
-26 3 -55 11 -65 16 -11 5 -28 14 -40 20 -13 6 -71 9 -150 7 -122 -3 -129 -4
-129 -23z m360 -85 c0 -16 -35 -29 -94 -36 -75 -9 -74 9 2 29 69 18 92 20 92
7z"/>
<path d="M9940 313 c-25 -23 -67 -54 -95 -69 -27 -15 -90 -55 -140 -88 -49
-34 -124 -82 -165 -106 l-75 -45 230 -3 c222 -3 231 -2 244 18 7 11 19 20 25
20 18 0 56 43 56 63 0 16 11 21 37 18 29 -4 39 21 29 63 -10 37 -45 86 -62 86
-4 0 -13 8 -19 17 -12 17 -14 17 -34 -2 -12 -10 -19 -25 -17 -32 4 -9 -5 -13
-31 -13 l-37 0 54 55 c64 65 64 79 0 18z"/>
<path d="M1510 278 c-311 -23 -631 -114 -667 -188 -7 -14 -19 -40 -27 -57
l-14 -33 121 1 122 1 -60 13 c-76 16 -95 24 -95 41 0 23 57 51 190 94 193 61
301 78 530 79 89 1 111 4 102 13 -18 18 -15 28 11 38 28 11 -52 11 -213 -2z"/>
<path d="M2046 267 c-25 -19 -15 -24 86 -43 154 -29 242 -63 236 -94 -5 -25
-102 -65 -230 -96 l-123 -29 108 -3 107 -3 102 53 c56 29 106 60 111 69 16 26
-1 66 -37 88 -75 47 -322 87 -360 58z"/>
<path d="M10150 172 c-47 -49 -107 -108 -134 -130 l-49 -42 137 0 136 0 0 130
c0 72 -1 130 -3 130 -2 0 -41 -40 -87 -88z"/>
<path d="M1860 172 c0 -5 18 -16 40 -26 23 -10 55 -31 73 -47 39 -36 67 -38
67 -6 0 27 -20 47 -72 70 -37 18 -108 23 -108 9z"/>
<path d="M1285 110 c-16 -16 -26 -33 -22 -36 9 -9 87 38 87 53 0 23 -35 14
-65 -17z"/>
<path d="M1580 132 c-106 -3 -122 -8 -96 -28 15 -11 55 -14 162 -14 133 0 172
7 142 27 -19 11 -112 18 -208 15z"/>
<path d="M1169 13 c-45 -9 -9 -11 231 -11 197 0 296 4 319 12 47 17 -472 16
-550 -1z"/>
<path d="M1828 3 c7 -3 16 -2 19 1 4 3 -2 6 -13 5 -11 0 -14 -3 -6 -6z"/>
</g>
</svg>
